<svg width="173" height="66" viewBox="0 0 173 66" fill="none" xmlns="http://www.w3.org/2000/svg">
<rect width="173" height="65.057" rx="5" fill="#111827"/>
<path d="M35.7381 24.5467C34.2557 24.5467 31.961 22.8613 29.5444 22.9222C26.3562 22.9628 23.432 24.7701 21.7871 27.6334C18.477 33.3803 20.9342 41.8687 24.163 46.5393C25.747 48.8137 27.6152 51.3724 30.0927 51.2912C32.4686 51.1897 33.3622 49.7479 36.2458 49.7479C39.1091 49.7479 39.9213 51.2912 42.4394 51.2303C44.9981 51.1897 46.6227 48.9153 48.1863 46.6206C49.9937 43.9806 50.745 41.4219 50.7856 41.2798C50.7247 41.2595 45.8104 39.3709 45.7495 33.6849C45.7089 28.9331 49.6281 26.6587 49.8109 26.5571C47.5771 23.2877 44.1452 22.9222 42.9471 22.8409C39.8198 22.5973 37.2002 24.5467 35.7381 24.5467ZM41.0179 19.7543C42.3379 18.1703 43.2111 15.9568 42.9674 13.7637C41.0788 13.8449 38.8045 15.0227 37.4439 16.6067C36.2255 18.0079 35.1695 20.2619 35.4538 22.4145C37.5454 22.577 39.698 21.3382 41.0179 19.7543Z" fill="white"/>
<path d="M71.0456 17.06C70.8136 16.572 70.4776 16.196 70.0376 15.932C69.5976 15.66 69.0856 15.524 68.5016 15.524C67.9176 15.524 67.3896 15.66 66.9176 15.932C66.4536 16.196 66.0856 16.58 65.8136 17.084C65.5496 17.58 65.4176 18.156 65.4176 18.812C65.4176 19.468 65.5496 20.044 65.8136 20.54C66.0856 21.036 66.4536 21.42 66.9176 21.692C67.3896 21.956 67.9176 22.088 68.5016 22.088C69.3176 22.088 69.9896 21.844 70.5176 21.356C71.0456 20.868 71.3536 20.208 71.4416 19.376H68.1056V18.488H72.6056V19.328C72.5416 20.016 72.3256 20.648 71.9576 21.224C71.5896 21.792 71.1056 22.244 70.5056 22.58C69.9056 22.908 69.2376 23.072 68.5016 23.072C67.7256 23.072 67.0176 22.892 66.3776 22.532C65.7376 22.164 65.2296 21.656 64.8536 21.008C64.4856 20.36 64.3016 19.628 64.3016 18.812C64.3016 17.996 64.4856 17.264 64.8536 16.616C65.2296 15.96 65.7376 15.452 66.3776 15.092C67.0176 14.724 67.7256 14.54 68.5016 14.54C69.3896 14.54 70.1736 14.76 70.8536 15.2C71.5416 15.64 72.0416 16.26 72.3536 17.06H71.0456ZM80.0495 19.46C80.0495 19.668 80.0375 19.888 80.0135 20.12H74.7575C74.7975 20.768 75.0175 21.276 75.4175 21.644C75.8255 22.004 76.3175 22.184 76.8935 22.184C77.3655 22.184 77.7575 22.076 78.0695 21.86C78.3895 21.636 78.6135 21.34 78.7415 20.972H79.9175C79.7415 21.604 79.3895 22.12 78.8615 22.52C78.3335 22.912 77.6775 23.108 76.8935 23.108C76.2695 23.108 75.7095 22.968 75.2135 22.688C74.7255 22.408 74.3415 22.012 74.0615 21.5C73.7815 20.98 73.6415 20.38 73.6415 19.7C73.6415 19.02 73.7775 18.424 74.0495 17.912C74.3215 17.4 74.7015 17.008 75.1895 16.736C75.6855 16.456 76.2535 16.316 76.8935 16.316C77.5175 16.316 78.0695 16.452 78.5495 16.724C79.0295 16.996 79.3975 17.372 79.6535 17.852C79.9175 18.324 80.0495 18.86 80.0495 19.46ZM78.9215 19.232C78.9215 18.816 78.8295 18.46 78.6455 18.164C78.4615 17.86 78.2095 17.632 77.8895 17.48C77.5775 17.32 77.2295 17.24 76.8455 17.24C76.2935 17.24 75.8215 17.416 75.4295 17.768C75.0455 18.12 74.8255 18.608 74.7695 19.232H78.9215ZM82.8229 17.324V21.2C82.8229 21.52 82.8909 21.748 83.0269 21.884C83.1629 22.012 83.3989 22.076 83.7349 22.076H84.5389V23H83.5549C82.9469 23 82.4909 22.86 82.1869 22.58C81.8829 22.3 81.7309 21.84 81.7309 21.2V17.324H80.8789V16.424H81.7309V14.768H82.8229V16.424H84.5389V17.324H82.8229ZM92.8244 15.356C92.6164 15.356 92.4404 15.284 92.2964 15.14C92.1524 14.996 92.0804 14.82 92.0804 14.612C92.0804 14.404 92.1524 14.228 92.2964 14.084C92.4404 13.94 92.6164 13.868 92.8244 13.868C93.0244 13.868 93.1924 13.94 93.3284 14.084C93.4724 14.228 93.5444 14.404 93.5444 14.612C93.5444 14.82 93.4724 14.996 93.3284 15.14C93.1924 15.284 93.0244 15.356 92.8244 15.356ZM93.3524 16.424V23H92.2604V16.424H93.3524ZM96.5456 17.324V21.2C96.5456 21.52 96.6136 21.748 96.7496 21.884C96.8856 22.012 97.1216 22.076 97.4576 22.076H98.2616V23H97.2776C96.6696 23 96.2136 22.86 95.9096 22.58C95.6056 22.3 95.4536 21.84 95.4536 21.2V17.324H94.6016V16.424H95.4536V14.768H96.5456V16.424H98.2616V17.324H96.5456ZM105.652 23.108C105.036 23.108 104.476 22.968 103.972 22.688C103.476 22.408 103.084 22.012 102.796 21.5C102.516 20.98 102.376 20.38 102.376 19.7C102.376 19.028 102.52 18.436 102.808 17.924C103.104 17.404 103.504 17.008 104.008 16.736C104.512 16.456 105.076 16.316 105.7 16.316C106.324 16.316 106.888 16.456 107.392 16.736C107.896 17.008 108.292 17.4 108.58 17.912C108.876 18.424 109.024 19.02 109.024 19.7C109.024 20.38 108.872 20.98 108.568 21.5C108.272 22.012 107.868 22.408 107.356 22.688C106.844 22.968 106.276 23.108 105.652 23.108ZM105.652 22.148C106.044 22.148 106.412 22.056 106.756 21.872C107.1 21.688 107.376 21.412 107.584 21.044C107.8 20.676 107.908 20.228 107.908 19.7C107.908 19.172 107.804 18.724 107.596 18.356C107.388 17.988 107.116 17.716 106.78 17.54C106.444 17.356 106.08 17.264 105.688 17.264C105.288 17.264 104.92 17.356 104.584 17.54C104.256 17.716 103.992 17.988 103.792 18.356C103.592 18.724 103.492 19.172 103.492 19.7C103.492 20.236 103.588 20.688 103.78 21.056C103.98 21.424 104.244 21.7 104.572 21.884C104.9 22.06 105.26 22.148 105.652 22.148ZM113.664 16.304C114.464 16.304 115.112 16.548 115.608 17.036C116.104 17.516 116.352 18.212 116.352 19.124V23H115.272V19.28C115.272 18.624 115.108 18.124 114.78 17.78C114.452 17.428 114.004 17.252 113.436 17.252C112.86 17.252 112.4 17.432 112.056 17.792C111.72 18.152 111.552 18.676 111.552 19.364V23H110.46V16.424H111.552V17.36C111.768 17.024 112.06 16.764 112.428 16.58C112.804 16.396 113.216 16.304 113.664 16.304Z" fill="white"/>
<path d="M72.6776 45.5006H67.4396L66.5396 48.0566H64.3976L68.8796 35.5286H71.2556L75.7376 48.0566H73.5776L72.6776 45.5006ZM72.1016 43.8266L70.0676 38.0126L68.0156 43.8266H72.1016ZM79.7384 39.5966C80.0864 39.1406 80.5604 38.7566 81.1604 38.4446C81.7604 38.1326 82.4384 37.9766 83.1944 37.9766C84.0584 37.9766 84.8444 38.1926 85.5524 38.6246C86.2724 39.0446 86.8364 39.6386 87.2444 40.4066C87.6524 41.1746 87.8564 42.0566 87.8564 43.0526C87.8564 44.0486 87.6524 44.9426 87.2444 45.7346C86.8364 46.5146 86.2724 47.1266 85.5524 47.5706C84.8444 48.0026 84.0584 48.2186 83.1944 48.2186C82.4384 48.2186 81.7664 48.0686 81.1784 47.7686C80.5904 47.4566 80.1104 47.0726 79.7384 46.6166V52.7726H77.6864V38.1386H79.7384V39.5966ZM85.7684 43.0526C85.7684 42.3686 85.6244 41.7806 85.3364 41.2886C85.0604 40.7846 84.6884 40.4066 84.2204 40.1546C83.7644 39.8906 83.2724 39.7586 82.7444 39.7586C82.2284 39.7586 81.7364 39.8906 81.2684 40.1546C80.8124 40.4186 80.4404 40.8026 80.1524 41.3066C79.8764 41.8106 79.7384 42.4046 79.7384 43.0886C79.7384 43.7726 79.8764 44.3726 80.1524 44.8886C80.4404 45.3926 80.8124 45.7766 81.2684 46.0406C81.7364 46.3046 82.2284 46.4366 82.7444 46.4366C83.2724 46.4366 83.7644 46.3046 84.2204 46.0406C84.6884 45.7646 85.0604 45.3686 85.3364 44.8526C85.6244 44.3366 85.7684 43.7366 85.7684 43.0526ZM91.9376 39.5966C92.2856 39.1406 92.7596 38.7566 93.3596 38.4446C93.9596 38.1326 94.6376 37.9766 95.3936 37.9766C96.2576 37.9766 97.0436 38.1926 97.7516 38.6246C98.4716 39.0446 99.0356 39.6386 99.4436 40.4066C99.8516 41.1746 100.056 42.0566 100.056 43.0526C100.056 44.0486 99.8516 44.9426 99.4436 45.7346C99.0356 46.5146 98.4716 47.1266 97.7516 47.5706C97.0436 48.0026 96.2576 48.2186 95.3936 48.2186C94.6376 48.2186 93.9656 48.0686 93.3776 47.7686C92.7896 47.4566 92.3096 47.0726 91.9376 46.6166V52.7726H89.8856V38.1386H91.9376V39.5966ZM97.9676 43.0526C97.9676 42.3686 97.8236 41.7806 97.5356 41.2886C97.2596 40.7846 96.8876 40.4066 96.4196 40.1546C95.9636 39.8906 95.4716 39.7586 94.9436 39.7586C94.4276 39.7586 93.9356 39.8906 93.4676 40.1546C93.0116 40.4186 92.6396 40.8026 92.3516 41.3066C92.0756 41.8106 91.9376 42.4046 91.9376 43.0886C91.9376 43.7726 92.0756 44.3726 92.3516 44.8886C92.6396 45.3926 93.0116 45.7766 93.4676 46.0406C93.9356 46.3046 94.4276 46.4366 94.9436 46.4366C95.4716 46.4366 95.9636 46.3046 96.4196 46.0406C96.8876 45.7646 97.2596 45.3686 97.5356 44.8526C97.8236 44.3366 97.9676 43.7366 97.9676 43.0526ZM110.883 48.1826C110.043 48.1826 109.287 48.0386 108.615 47.7506C107.943 47.4506 107.415 47.0306 107.031 46.4906C106.647 45.9506 106.455 45.3206 106.455 44.6006H108.651C108.699 45.1406 108.909 45.5846 109.281 45.9326C109.665 46.2806 110.199 46.4546 110.883 46.4546C111.591 46.4546 112.143 46.2866 112.539 45.9506C112.935 45.6026 113.133 45.1586 113.133 44.6186C113.133 44.1986 113.007 43.8566 112.755 43.5926C112.515 43.3286 112.209 43.1246 111.837 42.9806C111.477 42.8366 110.973 42.6806 110.325 42.5126C109.509 42.2966 108.843 42.0806 108.327 41.8646C107.823 41.6366 107.391 41.2886 107.031 40.8206C106.671 40.3526 106.491 39.7286 106.491 38.9486C106.491 38.2286 106.671 37.5986 107.031 37.0586C107.391 36.5186 107.895 36.1046 108.543 35.8166C109.191 35.5286 109.941 35.3846 110.793 35.3846C112.005 35.3846 112.995 35.6906 113.763 36.3026C114.543 36.9026 114.975 37.7306 115.059 38.7866H112.791C112.755 38.3306 112.539 37.9406 112.143 37.6166C111.747 37.2926 111.225 37.1306 110.577 37.1306C109.989 37.1306 109.509 37.2806 109.137 37.5806C108.765 37.8806 108.579 38.3126 108.579 38.8766C108.579 39.2606 108.693 39.5786 108.921 39.8306C109.161 40.0706 109.461 40.2626 109.821 40.4066C110.181 40.5506 110.673 40.7066 111.297 40.8746C112.125 41.1026 112.797 41.3306 113.313 41.5586C113.841 41.7866 114.285 42.1406 114.645 42.6206C115.017 43.0886 115.203 43.7186 115.203 44.5106C115.203 45.1466 115.029 45.7466 114.681 46.3106C114.345 46.8746 113.847 47.3306 113.187 47.6786C112.539 48.0146 111.771 48.1826 110.883 48.1826ZM120.018 39.8126V45.3026C120.018 45.6746 120.102 45.9446 120.27 46.1126C120.45 46.2686 120.75 46.3466 121.17 46.3466H122.43V48.0566H120.81C119.886 48.0566 119.178 47.8406 118.686 47.4086C118.194 46.9766 117.948 46.2746 117.948 45.3026V39.8126H116.778V38.1386H117.948V35.6726H120.018V38.1386H122.43V39.8126H120.018ZM128.623 48.2186C127.687 48.2186 126.841 48.0086 126.085 47.5886C125.329 47.1566 124.735 46.5566 124.303 45.7886C123.871 45.0086 123.655 44.1086 123.655 43.0886C123.655 42.0806 123.877 41.1866 124.321 40.4066C124.765 39.6266 125.371 39.0266 126.139 38.6066C126.907 38.1866 127.765 37.9766 128.713 37.9766C129.661 37.9766 130.519 38.1866 131.287 38.6066C132.055 39.0266 132.661 39.6266 133.105 40.4066C133.549 41.1866 133.771 42.0806 133.771 43.0886C133.771 44.0966 133.543 44.9906 133.087 45.7706C132.631 46.5506 132.007 47.1566 131.215 47.5886C130.435 48.0086 129.571 48.2186 128.623 48.2186ZM128.623 46.4366C129.151 46.4366 129.643 46.3106 130.099 46.0586C130.567 45.8066 130.945 45.4286 131.233 44.9246C131.521 44.4206 131.665 43.8086 131.665 43.0886C131.665 42.3686 131.527 41.7626 131.251 41.2706C130.975 40.7666 130.609 40.3886 130.153 40.1366C129.697 39.8846 129.205 39.7586 128.677 39.7586C128.149 39.7586 127.657 39.8846 127.201 40.1366C126.757 40.3886 126.403 40.7666 126.139 41.2706C125.875 41.7626 125.743 42.3686 125.743 43.0886C125.743 44.1566 126.013 44.9846 126.553 45.5726C127.105 46.1486 127.795 46.4366 128.623 46.4366ZM137.852 39.5786C138.152 39.0746 138.548 38.6846 139.04 38.4086C139.544 38.1206 140.138 37.9766 140.822 37.9766V40.1006H140.3C139.496 40.1006 138.884 40.3046 138.464 40.7126C138.056 41.1206 137.852 41.8286 137.852 42.8366V48.0566H135.8V38.1386H137.852V39.5786ZM151.798 42.8546C151.798 43.2266 151.774 43.5626 151.726 43.8626H144.148C144.208 44.6546 144.502 45.2906 145.03 45.7706C145.558 46.2506 146.206 46.4906 146.974 46.4906C148.078 46.4906 148.858 46.0286 149.314 45.1046H151.528C151.228 46.0166 150.682 46.7666 149.89 47.3546C149.11 47.9306 148.138 48.2186 146.974 48.2186C146.026 48.2186 145.174 48.0086 144.418 47.5886C143.674 47.1566 143.086 46.5566 142.654 45.7886C142.234 45.0086 142.024 44.1086 142.024 43.0886C142.024 42.0686 142.228 41.1746 142.636 40.4066C143.056 39.6266 143.638 39.0266 144.382 38.6066C145.138 38.1866 146.002 37.9766 146.974 37.9766C147.91 37.9766 148.744 38.1806 149.476 38.5886C150.208 38.9966 150.778 39.5726 151.186 40.3166C151.594 41.0486 151.798 41.8946 151.798 42.8546ZM149.656 42.2066C149.644 41.4506 149.374 40.8446 148.846 40.3886C148.318 39.9326 147.664 39.7046 146.884 39.7046C146.176 39.7046 145.57 39.9326 145.066 40.3886C144.562 40.8326 144.262 41.4386 144.166 42.2066H149.656Z" fill="white"/>
</svg>
