<svg width="184" height="177" viewBox="0 0 184 177" fill="none" xmlns="http://www.w3.org/2000/svg">
<g clip-path="url(#clip0_786_1925)">
<path d="M4.83998 128.32C3.39998 128.32 2.22998 129.5 2.22998 130.95C2.22998 132.4 3.39998 133.58 4.83998 133.58C6.27998 133.58 7.44998 132.4 7.44998 130.95C7.44998 129.5 6.27998 128.32 4.83998 128.32Z" fill="url(#paint0_linear_786_1925)"/>
<path d="M49.5001 133.58C50.9416 133.58 52.1101 132.403 52.1101 130.95C52.1101 129.498 50.9416 128.32 49.5001 128.32C48.0587 128.32 46.8901 129.498 46.8901 130.95C46.8901 132.403 48.0587 133.58 49.5001 133.58Z" fill="url(#paint1_linear_786_1925)"/>
<path d="M27.1701 128.32C25.7301 128.32 24.5601 129.5 24.5601 130.95C24.5601 132.4 25.7301 133.58 27.1701 133.58C28.6101 133.58 29.7801 132.4 29.7801 130.95C29.7801 129.5 28.6101 128.32 27.1701 128.32Z" fill="url(#paint2_linear_786_1925)"/>
<path d="M26.7999 106.94C25.3599 106.94 24.1899 108.12 24.1899 109.57C24.1899 111.02 25.3599 112.2 26.7999 112.2C28.2399 112.2 29.4099 111.02 29.4099 109.57C29.4099 108.12 28.2399 106.94 26.7999 106.94Z" fill="url(#paint3_linear_786_1925)"/>
<path d="M4.46986 106.94C3.02986 106.94 1.85986 108.12 1.85986 109.57C1.85986 111.02 3.02986 112.2 4.46986 112.2C5.90986 112.2 7.07986 111.02 7.07986 109.57C7.07986 108.12 5.90986 106.94 4.46986 106.94Z" fill="url(#paint4_linear_786_1925)"/>
<path d="M71.4601 106.94C70.0201 106.94 68.8501 108.12 68.8501 109.57C68.8501 111.02 70.0201 112.2 71.4601 112.2C72.9001 112.2 74.0701 111.02 74.0701 109.57C74.0701 108.12 72.9001 106.94 71.4601 106.94Z" fill="url(#paint5_linear_786_1925)"/>
<path d="M49.13 106.94C47.69 106.94 46.52 108.12 46.52 109.57C46.52 111.02 47.69 112.2 49.13 112.2C50.57 112.2 51.74 111.02 51.74 109.57C51.74 108.12 50.57 106.94 49.13 106.94Z" fill="url(#paint6_linear_786_1925)"/>
<path d="M4.83998 171.1C3.39998 171.1 2.22998 172.28 2.22998 173.73C2.22998 175.18 3.39998 176.36 4.83998 176.36C6.27998 176.36 7.44998 175.18 7.44998 173.73C7.44998 172.28 6.27998 171.1 4.83998 171.1Z" fill="url(#paint7_linear_786_1925)"/>
<path d="M26.7999 149.71C25.3599 149.71 24.1899 150.89 24.1899 152.34C24.1899 153.79 25.3599 154.97 26.7999 154.97C28.2399 154.97 29.4099 153.79 29.4099 152.34C29.4099 150.89 28.2399 149.71 26.7999 149.71Z" fill="url(#paint8_linear_786_1925)"/>
<path d="M4.46986 149.71C3.02986 149.71 1.85986 150.89 1.85986 152.34C1.85986 153.79 3.02986 154.97 4.46986 154.97C5.90986 154.97 7.07986 153.79 7.07986 152.34C7.07986 150.89 5.90986 149.71 4.46986 149.71Z" fill="url(#paint9_linear_786_1925)"/>
<path d="M93.4201 85.5498C91.9801 85.5498 90.8101 86.7298 90.8101 88.1798C90.8101 89.6298 91.9801 90.8098 93.4201 90.8098C94.8601 90.8098 96.0301 89.6298 96.0301 88.1798C96.0301 86.7298 94.8601 85.5498 93.4201 85.5498Z" fill="url(#paint10_linear_786_1925)"/>
<path d="M48.7599 85.5498C47.3199 85.5498 46.1499 86.7298 46.1499 88.1798C46.1499 89.6298 47.3199 90.8098 48.7599 90.8098C50.1999 90.8098 51.3699 89.6298 51.3699 88.1798C51.3699 86.7298 50.1999 85.5498 48.7599 85.5498Z" fill="url(#paint11_linear_786_1925)"/>
<path d="M71.09 90.8098C72.5314 90.8098 73.7 89.6323 73.7 88.1798C73.7 86.7273 72.5314 85.5498 71.09 85.5498C69.6485 85.5498 68.48 86.7273 68.48 88.1798C68.48 89.6323 69.6485 90.8098 71.09 90.8098Z" fill="url(#paint12_linear_786_1925)"/>
<path d="M26.4201 85.5498C24.9801 85.5498 23.8101 86.7298 23.8101 88.1798C23.8101 89.6298 24.9801 90.8098 26.4201 90.8098C27.8601 90.8098 29.0301 89.6298 29.0301 88.1798C29.0301 86.7298 27.8701 85.5498 26.4201 85.5498Z" fill="url(#paint13_linear_786_1925)"/>
<path d="M4.08998 85.5498C2.64998 85.5498 1.47998 86.7298 1.47998 88.1798C1.47998 89.6298 2.64998 90.8098 4.08998 90.8098C5.52998 90.8098 6.69998 89.6298 6.69998 88.1798C6.69998 86.7298 5.52998 85.5498 4.08998 85.5498Z" fill="url(#paint14_linear_786_1925)"/>
<path d="M93.0402 64.1602C91.6002 64.1602 90.4302 65.3402 90.4302 66.7902C90.4302 68.2402 91.6002 69.4202 93.0402 69.4202C94.4802 69.4202 95.6502 68.2402 95.6502 66.7902C95.6502 65.3402 94.4802 64.1602 93.0402 64.1602Z" fill="url(#paint15_linear_786_1925)"/>
<path d="M70.7101 64.1602C69.2701 64.1602 68.1001 65.3402 68.1001 66.7902C68.1001 68.2402 69.2701 69.4202 70.7101 69.4202C72.1501 69.4202 73.3201 68.2402 73.3201 66.7902C73.3201 65.3402 72.1501 64.1602 70.7101 64.1602Z" fill="url(#paint16_linear_786_1925)"/>
<path d="M48.38 64.1602C46.94 64.1602 45.77 65.3402 45.77 66.7902C45.77 68.2402 46.94 69.4202 48.38 69.4202C49.82 69.4202 50.99 68.2402 50.99 66.7902C50.99 65.3402 49.82 64.1602 48.38 64.1602Z" fill="url(#paint17_linear_786_1925)"/>
<path d="M115.38 64.1602C113.94 64.1602 112.77 65.3402 112.77 66.7902C112.77 68.2402 113.94 69.4202 115.38 69.4202C116.82 69.4202 117.99 68.2402 117.99 66.7902C117.99 65.3402 116.82 64.1602 115.38 64.1602Z" fill="url(#paint18_linear_786_1925)"/>
<path d="M3.71986 64.1602C2.27986 64.1602 1.10986 65.3402 1.10986 66.7902C1.10986 68.2402 2.27986 69.4202 3.71986 69.4202C5.15986 69.4202 6.32986 68.2402 6.32986 66.7902C6.32986 65.3402 5.15986 64.1602 3.71986 64.1602Z" fill="url(#paint19_linear_786_1925)"/>
<path d="M26.0499 64.1602C24.6099 64.1602 23.4399 65.3402 23.4399 66.7902C23.4399 68.2402 24.6099 69.4202 26.0499 69.4202C27.4899 69.4202 28.6599 68.2402 28.6599 66.7902C28.6599 65.3402 27.4899 64.1602 26.0499 64.1602Z" fill="url(#paint20_linear_786_1925)"/>
<path d="M3.35023 42.7695C1.91023 42.7695 0.740234 43.9495 0.740234 45.3995C0.740234 46.8495 1.91023 48.0295 3.35023 48.0295C4.79023 48.0295 5.96023 46.8495 5.96023 45.3995C5.96023 43.9495 4.79023 42.7695 3.35023 42.7695Z" fill="url(#paint21_linear_786_1925)"/>
<path d="M92.6701 48.0295C94.1115 48.0295 95.2801 46.852 95.2801 45.3995C95.2801 43.947 94.1115 42.7695 92.6701 42.7695C91.2286 42.7695 90.0601 43.947 90.0601 45.3995C90.0601 46.852 91.2286 48.0295 92.6701 48.0295Z" fill="url(#paint22_linear_786_1925)"/>
<path d="M137.33 48.0295C138.772 48.0295 139.94 46.852 139.94 45.3995C139.94 43.947 138.772 42.7695 137.33 42.7695C135.889 42.7695 134.72 43.947 134.72 45.3995C134.72 46.852 135.889 48.0295 137.33 48.0295Z" fill="url(#paint23_linear_786_1925)"/>
<path d="M70.34 42.7695C68.9 42.7695 67.73 43.9495 67.73 45.3995C67.73 46.8495 68.9 48.0295 70.34 48.0295C71.78 48.0295 72.95 46.8495 72.95 45.3995C72.95 43.9495 71.78 42.7695 70.34 42.7695Z" fill="url(#paint24_linear_786_1925)"/>
<path d="M48.0099 42.7695C46.5699 42.7695 45.3999 43.9495 45.3999 45.3995C45.3999 46.8495 46.5699 48.0295 48.0099 48.0295C49.4499 48.0295 50.6199 46.8495 50.6199 45.3995C50.6199 43.9495 49.4499 42.7695 48.0099 42.7695Z" fill="url(#paint25_linear_786_1925)"/>
<path d="M25.6798 42.7695C24.2398 42.7695 23.0698 43.9495 23.0698 45.3995C23.0698 46.8495 24.2398 48.0295 25.6798 48.0295C27.1198 48.0295 28.2898 46.8495 28.2898 45.3995C28.2898 43.9495 27.1198 42.7695 25.6798 42.7695Z" fill="url(#paint26_linear_786_1925)"/>
<path d="M115 42.7695C113.56 42.7695 112.39 43.9495 112.39 45.3995C112.39 46.8495 113.56 48.0295 115 48.0295C116.44 48.0295 117.61 46.8495 117.61 45.3995C117.61 43.9495 116.44 42.7695 115 42.7695Z" fill="url(#paint27_linear_786_1925)"/>
<path d="M2.98012 26.6399C4.42158 26.6399 5.59012 25.4624 5.59012 24.0099C5.59012 22.5574 4.42158 21.3799 2.98012 21.3799C1.53865 21.3799 0.370117 22.5574 0.370117 24.0099C0.370117 25.4624 1.53865 26.6399 2.98012 26.6399Z" fill="url(#paint28_linear_786_1925)"/>
<path d="M114.63 21.3896C113.19 21.3896 112.02 22.5696 112.02 24.0196C112.02 25.4696 113.19 26.6496 114.63 26.6496C116.07 26.6496 117.24 25.4696 117.24 24.0196C117.24 22.5696 116.07 21.3896 114.63 21.3896Z" fill="url(#paint29_linear_786_1925)"/>
<path d="M25.3102 21.3896C23.8702 21.3896 22.7002 22.5696 22.7002 24.0196C22.7002 25.4696 23.8702 26.6496 25.3102 26.6496C26.7502 26.6496 27.9202 25.4696 27.9202 24.0196C27.9202 22.5696 26.7502 21.3896 25.3102 21.3896Z" fill="url(#paint30_linear_786_1925)"/>
<path d="M69.9699 21.3896C68.5299 21.3896 67.3599 22.5696 67.3599 24.0196C67.3599 25.4696 68.5299 26.6496 69.9699 26.6496C71.4099 26.6496 72.5799 25.4696 72.5799 24.0196C72.5799 22.5696 71.4099 21.3896 69.9699 21.3896Z" fill="url(#paint31_linear_786_1925)"/>
<path d="M47.6398 21.3896C46.1998 21.3896 45.0298 22.5696 45.0298 24.0196C45.0298 25.4696 46.1998 26.6496 47.6398 26.6496C49.0798 26.6496 50.2498 25.4696 50.2498 24.0196C50.2498 22.5696 49.0798 21.3896 47.6398 21.3896Z" fill="url(#paint32_linear_786_1925)"/>
<path d="M92.2999 21.3896C90.8599 21.3896 89.6899 22.5696 89.6899 24.0196C89.6899 25.4696 90.8599 26.6496 92.2999 26.6496C93.7399 26.6496 94.9099 25.4696 94.9099 24.0196C94.9099 22.5696 93.7399 21.3896 92.2999 21.3896Z" fill="url(#paint33_linear_786_1925)"/>
<path d="M159.29 21.3896C157.85 21.3896 156.68 22.5696 156.68 24.0196C156.68 25.4696 157.85 26.6496 159.29 26.6496C160.73 26.6496 161.9 25.4696 161.9 24.0196C161.9 22.5696 160.74 21.3896 159.29 21.3896Z" fill="url(#paint34_linear_786_1925)"/>
<path d="M136.96 21.3896C135.52 21.3896 134.35 22.5696 134.35 24.0196C134.35 25.4696 135.52 26.6496 136.96 26.6496C138.4 26.6496 139.57 25.4696 139.57 24.0196C139.57 22.5696 138.41 21.3896 136.96 21.3896Z" fill="url(#paint35_linear_786_1925)"/>
<path d="M24.9401 5.25023C26.3801 5.25023 27.5501 4.07023 27.5501 2.62023C27.5501 1.17023 26.3801 -0.00976562 24.9401 -0.00976562C23.5001 -0.00976562 22.3301 1.17023 22.3301 2.62023C22.3301 4.07023 23.5001 5.25023 24.9401 5.25023Z" fill="url(#paint36_linear_786_1925)"/>
<path d="M2.61 5.25C4.05 5.25 5.22 4.07 5.22 2.62C5.22 1.17 4.04 0 2.61 0C1.18 0 0 1.18 0 2.63C0 4.08 1.17 5.26 2.61 5.26V5.25Z" fill="url(#paint37_linear_786_1925)"/>
<path d="M158.92 5.26C160.362 5.26 161.53 4.08251 161.53 2.63C161.53 1.17749 160.362 0 158.92 0C157.479 0 156.31 1.17749 156.31 2.63C156.31 4.08251 157.479 5.26 158.92 5.26Z" fill="url(#paint38_linear_786_1925)"/>
<path d="M91.9298 5.25023C93.3698 5.25023 94.5398 4.07023 94.5398 2.62023C94.5398 1.17023 93.3698 -0.00976562 91.9298 -0.00976562C90.4898 -0.00976562 89.3198 1.17023 89.3198 2.62023C89.3198 4.07023 90.4898 5.25023 91.9298 5.25023Z" fill="url(#paint39_linear_786_1925)"/>
<path d="M114.26 5.25023C115.7 5.25023 116.87 4.07023 116.87 2.62023C116.87 1.17023 115.7 -0.00976562 114.26 -0.00976562C112.82 -0.00976562 111.65 1.17023 111.65 2.62023C111.65 4.07023 112.82 5.25023 114.26 5.25023Z" fill="url(#paint40_linear_786_1925)"/>
<path d="M136.59 5.25023C138.03 5.25023 139.2 4.07023 139.2 2.62023C139.2 1.17023 138.03 -0.00976562 136.59 -0.00976562C135.15 -0.00976562 133.98 1.17023 133.98 2.62023C133.98 4.07023 135.15 5.25023 136.59 5.25023Z" fill="url(#paint41_linear_786_1925)"/>
<path d="M47.2702 5.25023C48.7102 5.25023 49.8802 4.07023 49.8802 2.62023C49.8802 1.17023 48.7102 -0.00976562 47.2702 -0.00976562C45.8302 -0.00976562 44.6602 1.17023 44.6602 2.62023C44.6602 4.07023 45.8302 5.25023 47.2702 5.25023Z" fill="url(#paint42_linear_786_1925)"/>
<path d="M181.25 5.25023C182.69 5.25023 183.86 4.07023 183.86 2.62023C183.86 1.17023 182.7 -0.00976562 181.25 -0.00976562C179.8 -0.00976562 178.64 1.17023 178.64 2.62023C178.64 4.07023 179.81 5.25023 181.25 5.25023Z" fill="url(#paint43_linear_786_1925)"/>
<path d="M69.6002 5.25023C71.0402 5.25023 72.2102 4.07023 72.2102 2.62023C72.2102 1.17023 71.0402 -0.00976562 69.6002 -0.00976562C68.1602 -0.00976562 66.9902 1.17023 66.9902 2.62023C66.9902 4.07023 68.1602 5.25023 69.6002 5.25023Z" fill="url(#paint44_linear_786_1925)"/>
</g>
<defs>
<linearGradient id="paint0_linear_786_1925" x1="2.22998" y1="128.32" x2="7.48982" y2="133.54" gradientUnits="userSpaceOnUse">
<stop stop-color="#F761A1"/>
<stop offset="1" stop-color="#8C1BAB"/>
</linearGradient>
<linearGradient id="paint1_linear_786_1925" x1="46.8901" y1="128.32" x2="52.15" y2="133.54" gradientUnits="userSpaceOnUse">
<stop stop-color="#F761A1"/>
<stop offset="1" stop-color="#8C1BAB"/>
</linearGradient>
<linearGradient id="paint2_linear_786_1925" x1="24.5601" y1="128.32" x2="29.8199" y2="133.54" gradientUnits="userSpaceOnUse">
<stop stop-color="#F761A1"/>
<stop offset="1" stop-color="#8C1BAB"/>
</linearGradient>
<linearGradient id="paint3_linear_786_1925" x1="24.1899" y1="106.94" x2="29.4498" y2="112.16" gradientUnits="userSpaceOnUse">
<stop stop-color="#F761A1"/>
<stop offset="1" stop-color="#8C1BAB"/>
</linearGradient>
<linearGradient id="paint4_linear_786_1925" x1="1.85986" y1="106.94" x2="7.1197" y2="112.16" gradientUnits="userSpaceOnUse">
<stop stop-color="#F761A1"/>
<stop offset="1" stop-color="#8C1BAB"/>
</linearGradient>
<linearGradient id="paint5_linear_786_1925" x1="68.8501" y1="106.94" x2="74.1099" y2="112.16" gradientUnits="userSpaceOnUse">
<stop stop-color="#F761A1"/>
<stop offset="1" stop-color="#8C1BAB"/>
</linearGradient>
<linearGradient id="paint6_linear_786_1925" x1="46.52" y1="106.94" x2="51.7799" y2="112.16" gradientUnits="userSpaceOnUse">
<stop stop-color="#F761A1"/>
<stop offset="1" stop-color="#8C1BAB"/>
</linearGradient>
<linearGradient id="paint7_linear_786_1925" x1="2.22998" y1="171.1" x2="7.48982" y2="176.319" gradientUnits="userSpaceOnUse">
<stop stop-color="#F761A1"/>
<stop offset="1" stop-color="#8C1BAB"/>
</linearGradient>
<linearGradient id="paint8_linear_786_1925" x1="24.1899" y1="149.71" x2="29.4498" y2="154.93" gradientUnits="userSpaceOnUse">
<stop stop-color="#F761A1"/>
<stop offset="1" stop-color="#8C1BAB"/>
</linearGradient>
<linearGradient id="paint9_linear_786_1925" x1="1.85986" y1="149.71" x2="7.1197" y2="154.93" gradientUnits="userSpaceOnUse">
<stop stop-color="#F761A1"/>
<stop offset="1" stop-color="#8C1BAB"/>
</linearGradient>
<linearGradient id="paint10_linear_786_1925" x1="90.8101" y1="85.5498" x2="96.0699" y2="90.7697" gradientUnits="userSpaceOnUse">
<stop stop-color="#F761A1"/>
<stop offset="1" stop-color="#8C1BAB"/>
</linearGradient>
<linearGradient id="paint11_linear_786_1925" x1="46.1499" y1="85.5498" x2="51.4097" y2="90.7697" gradientUnits="userSpaceOnUse">
<stop stop-color="#F761A1"/>
<stop offset="1" stop-color="#8C1BAB"/>
</linearGradient>
<linearGradient id="paint12_linear_786_1925" x1="68.48" y1="85.5498" x2="73.7398" y2="90.7696" gradientUnits="userSpaceOnUse">
<stop stop-color="#F761A1"/>
<stop offset="1" stop-color="#8C1BAB"/>
</linearGradient>
<linearGradient id="paint13_linear_786_1925" x1="23.8101" y1="85.5498" x2="29.0699" y2="90.7697" gradientUnits="userSpaceOnUse">
<stop stop-color="#F761A1"/>
<stop offset="1" stop-color="#8C1BAB"/>
</linearGradient>
<linearGradient id="paint14_linear_786_1925" x1="1.47998" y1="85.5498" x2="6.73982" y2="90.7697" gradientUnits="userSpaceOnUse">
<stop stop-color="#F761A1"/>
<stop offset="1" stop-color="#8C1BAB"/>
</linearGradient>
<linearGradient id="paint15_linear_786_1925" x1="90.4302" y1="64.1602" x2="95.69" y2="69.38" gradientUnits="userSpaceOnUse">
<stop stop-color="#F761A1"/>
<stop offset="1" stop-color="#8C1BAB"/>
</linearGradient>
<linearGradient id="paint16_linear_786_1925" x1="68.1001" y1="64.1602" x2="73.3599" y2="69.38" gradientUnits="userSpaceOnUse">
<stop stop-color="#F761A1"/>
<stop offset="1" stop-color="#8C1BAB"/>
</linearGradient>
<linearGradient id="paint17_linear_786_1925" x1="45.77" y1="64.1602" x2="51.0299" y2="69.38" gradientUnits="userSpaceOnUse">
<stop stop-color="#F761A1"/>
<stop offset="1" stop-color="#8C1BAB"/>
</linearGradient>
<linearGradient id="paint18_linear_786_1925" x1="112.77" y1="64.1602" x2="118.03" y2="69.38" gradientUnits="userSpaceOnUse">
<stop stop-color="#F761A1"/>
<stop offset="1" stop-color="#8C1BAB"/>
</linearGradient>
<linearGradient id="paint19_linear_786_1925" x1="1.10986" y1="64.1602" x2="6.3697" y2="69.38" gradientUnits="userSpaceOnUse">
<stop stop-color="#F761A1"/>
<stop offset="1" stop-color="#8C1BAB"/>
</linearGradient>
<linearGradient id="paint20_linear_786_1925" x1="23.4399" y1="64.1602" x2="28.6998" y2="69.38" gradientUnits="userSpaceOnUse">
<stop stop-color="#F761A1"/>
<stop offset="1" stop-color="#8C1BAB"/>
</linearGradient>
<linearGradient id="paint21_linear_786_1925" x1="0.740234" y1="42.7695" x2="6.00008" y2="47.9894" gradientUnits="userSpaceOnUse">
<stop stop-color="#F761A1"/>
<stop offset="1" stop-color="#8C1BAB"/>
</linearGradient>
<linearGradient id="paint22_linear_786_1925" x1="90.0601" y1="42.7695" x2="95.3199" y2="47.9894" gradientUnits="userSpaceOnUse">
<stop stop-color="#F761A1"/>
<stop offset="1" stop-color="#8C1BAB"/>
</linearGradient>
<linearGradient id="paint23_linear_786_1925" x1="134.72" y1="42.7695" x2="139.98" y2="47.9894" gradientUnits="userSpaceOnUse">
<stop stop-color="#F761A1"/>
<stop offset="1" stop-color="#8C1BAB"/>
</linearGradient>
<linearGradient id="paint24_linear_786_1925" x1="67.73" y1="42.7695" x2="72.9898" y2="47.9894" gradientUnits="userSpaceOnUse">
<stop stop-color="#F761A1"/>
<stop offset="1" stop-color="#8C1BAB"/>
</linearGradient>
<linearGradient id="paint25_linear_786_1925" x1="45.3999" y1="42.7695" x2="50.6597" y2="47.9894" gradientUnits="userSpaceOnUse">
<stop stop-color="#F761A1"/>
<stop offset="1" stop-color="#8C1BAB"/>
</linearGradient>
<linearGradient id="paint26_linear_786_1925" x1="23.0698" y1="42.7695" x2="28.3297" y2="47.9894" gradientUnits="userSpaceOnUse">
<stop stop-color="#F761A1"/>
<stop offset="1" stop-color="#8C1BAB"/>
</linearGradient>
<linearGradient id="paint27_linear_786_1925" x1="112.39" y1="42.7695" x2="117.65" y2="47.9894" gradientUnits="userSpaceOnUse">
<stop stop-color="#F761A1"/>
<stop offset="1" stop-color="#8C1BAB"/>
</linearGradient>
<linearGradient id="paint28_linear_786_1925" x1="0.370117" y1="21.3799" x2="5.62996" y2="26.5997" gradientUnits="userSpaceOnUse">
<stop stop-color="#F761A1"/>
<stop offset="1" stop-color="#8C1BAB"/>
</linearGradient>
<linearGradient id="paint29_linear_786_1925" x1="112.02" y1="21.3896" x2="117.28" y2="26.6095" gradientUnits="userSpaceOnUse">
<stop stop-color="#F761A1"/>
<stop offset="1" stop-color="#8C1BAB"/>
</linearGradient>
<linearGradient id="paint30_linear_786_1925" x1="22.7002" y1="21.3896" x2="27.96" y2="26.6095" gradientUnits="userSpaceOnUse">
<stop stop-color="#F761A1"/>
<stop offset="1" stop-color="#8C1BAB"/>
</linearGradient>
<linearGradient id="paint31_linear_786_1925" x1="67.3599" y1="21.3896" x2="72.6197" y2="26.6095" gradientUnits="userSpaceOnUse">
<stop stop-color="#F761A1"/>
<stop offset="1" stop-color="#8C1BAB"/>
</linearGradient>
<linearGradient id="paint32_linear_786_1925" x1="45.0298" y1="21.3896" x2="50.2896" y2="26.6095" gradientUnits="userSpaceOnUse">
<stop stop-color="#F761A1"/>
<stop offset="1" stop-color="#8C1BAB"/>
</linearGradient>
<linearGradient id="paint33_linear_786_1925" x1="89.6899" y1="21.3896" x2="94.9498" y2="26.6095" gradientUnits="userSpaceOnUse">
<stop stop-color="#F761A1"/>
<stop offset="1" stop-color="#8C1BAB"/>
</linearGradient>
<linearGradient id="paint34_linear_786_1925" x1="156.68" y1="21.3896" x2="161.94" y2="26.6095" gradientUnits="userSpaceOnUse">
<stop stop-color="#F761A1"/>
<stop offset="1" stop-color="#8C1BAB"/>
</linearGradient>
<linearGradient id="paint35_linear_786_1925" x1="134.35" y1="21.3896" x2="139.61" y2="26.6095" gradientUnits="userSpaceOnUse">
<stop stop-color="#F761A1"/>
<stop offset="1" stop-color="#8C1BAB"/>
</linearGradient>
<linearGradient id="paint36_linear_786_1925" x1="22.3301" y1="-0.00976562" x2="27.5899" y2="5.21008" gradientUnits="userSpaceOnUse">
<stop stop-color="#F761A1"/>
<stop offset="1" stop-color="#8C1BAB"/>
</linearGradient>
<linearGradient id="paint37_linear_786_1925" x1="0" y1="0" x2="5.25985" y2="5.21985" gradientUnits="userSpaceOnUse">
<stop stop-color="#F761A1"/>
<stop offset="1" stop-color="#8C1BAB"/>
</linearGradient>
<linearGradient id="paint38_linear_786_1925" x1="156.31" y1="0" x2="161.57" y2="5.21985" gradientUnits="userSpaceOnUse">
<stop stop-color="#F761A1"/>
<stop offset="1" stop-color="#8C1BAB"/>
</linearGradient>
<linearGradient id="paint39_linear_786_1925" x1="89.3198" y1="-0.00976562" x2="94.5797" y2="5.21008" gradientUnits="userSpaceOnUse">
<stop stop-color="#F761A1"/>
<stop offset="1" stop-color="#8C1BAB"/>
</linearGradient>
<linearGradient id="paint40_linear_786_1925" x1="111.65" y1="-0.00976562" x2="116.91" y2="5.21008" gradientUnits="userSpaceOnUse">
<stop stop-color="#F761A1"/>
<stop offset="1" stop-color="#8C1BAB"/>
</linearGradient>
<linearGradient id="paint41_linear_786_1925" x1="133.98" y1="-0.00976562" x2="139.24" y2="5.21008" gradientUnits="userSpaceOnUse">
<stop stop-color="#F761A1"/>
<stop offset="1" stop-color="#8C1BAB"/>
</linearGradient>
<linearGradient id="paint42_linear_786_1925" x1="44.6602" y1="-0.00976562" x2="49.92" y2="5.21008" gradientUnits="userSpaceOnUse">
<stop stop-color="#F761A1"/>
<stop offset="1" stop-color="#8C1BAB"/>
</linearGradient>
<linearGradient id="paint43_linear_786_1925" x1="178.64" y1="-0.00976562" x2="183.9" y2="5.21008" gradientUnits="userSpaceOnUse">
<stop stop-color="#F761A1"/>
<stop offset="1" stop-color="#8C1BAB"/>
</linearGradient>
<linearGradient id="paint44_linear_786_1925" x1="66.9902" y1="-0.00976562" x2="72.2501" y2="5.21008" gradientUnits="userSpaceOnUse">
<stop stop-color="#F761A1"/>
<stop offset="1" stop-color="#8C1BAB"/>
</linearGradient>
<clipPath id="clip0_786_1925">
<rect width="183.86" height="176.35" fill="white"/>
</clipPath>
</defs>
</svg>
