<svg width="29" height="144" viewBox="0 0 29 144" fill="none" xmlns="http://www.w3.org/2000/svg">
<g clip-path="url(#clip0_824_3019)">
<path d="M77.2129 0.228365C87.4236 -0.558143 97.5225 7.58151 98.9187 17.727C99.6447 22.9766 98.3044 28.3844 99.2956 33.5921C100.687 40.9034 106.411 46.5951 112.396 51.0256C118.381 55.4561 125.018 59.235 129.723 65.0012C134.432 70.7674 136.759 79.3677 132.818 85.6831C129.006 91.7936 120.671 93.9204 116.929 100.078C110.842 110.088 120.266 123.943 115.105 134.46C112.499 139.771 106.453 142.884 100.538 142.94C94.6231 142.996 88.9175 140.362 84.3334 136.62C78.9256 132.208 74.5882 126.121 68.0448 123.696C57.392 119.754 46.1948 127 35.058 129.225C24.5682 131.324 12.7612 128.373 5.77576 120.271C-1.20973 112.168 -1.99623 98.8024 5.27314 90.9513C9.19637 86.7116 15.1766 83.9844 17.0475 78.5161C19.3698 71.7307 14.176 64.9733 10.2993 58.9418C7.0835 53.9389 4.54713 48.2844 4.40286 42.3414C4.25859 36.3937 6.88338 30.1389 12.0166 27.1325C24.5309 19.7933 41.4059 33.9086 53.2082 23.67C62.3252 15.7677 62.0133 1.40114 77.2129 0.228365Z" stroke="#FF5722" stroke-width="0.349042" stroke-miterlimit="10"/>
<path d="M76.6966 4.02537C86.3627 3.28074 95.9265 10.9876 97.2482 20.5932C97.9323 25.5636 96.6664 30.6828 97.6065 35.6113C98.9236 42.5363 104.345 47.9208 110.009 52.114C115.673 56.3072 121.956 59.886 126.414 65.345C130.873 70.804 133.074 78.9437 129.346 84.9239C125.735 90.7087 117.846 92.7238 114.3 98.5505C108.539 108.026 117.46 121.145 112.573 131.104C110.107 136.131 104.383 139.077 98.7793 139.132C93.1807 139.188 87.7775 136.689 83.4401 133.152C78.3208 128.978 74.2161 123.211 68.0171 120.917C57.9321 117.185 47.3306 124.045 36.7895 126.153C26.8581 128.14 15.6795 125.348 9.06628 117.678C2.44845 110.008 1.70848 97.3545 8.59159 89.9222C12.31 85.9105 17.9692 83.323 19.7376 78.1525C21.9343 71.7301 17.0198 65.331 13.3479 59.6207C10.3042 54.8831 7.90281 49.5311 7.76319 43.9045C7.62358 38.2733 10.1134 32.3536 14.9721 29.5054C26.8209 22.5572 42.7977 35.9231 53.967 26.2291C62.5953 18.741 62.3021 5.1423 76.6966 4.03002V4.02537Z" stroke="#FF5722" stroke-width="0.33508" stroke-linecap="round" stroke-linejoin="round"/>
<path d="M76.1793 7.82334C85.301 7.12061 94.3248 14.3946 95.5767 23.4558C96.2236 28.1469 95.0276 32.9776 95.9118 37.6315C97.1544 44.1656 102.274 49.2476 107.616 53.2081C112.964 57.1685 118.893 60.5426 123.1 65.6945C127.307 70.8463 129.387 78.5299 125.864 84.175C122.458 89.634 115.011 91.5375 111.665 97.0384C106.229 105.983 114.648 118.362 110.036 127.759C107.709 132.506 102.306 135.284 97.0194 135.335C91.7326 135.386 86.6366 133.032 82.5412 129.69C77.7105 125.748 73.8338 120.308 67.9885 118.144C58.4713 114.621 48.4654 121.094 38.5154 123.082C29.1425 124.957 18.5968 122.323 12.3512 115.082C6.10572 107.845 5.40763 95.8982 11.9045 88.8848C15.4135 85.0965 20.7515 82.6579 22.4223 77.7759C24.4979 71.7119 19.858 65.6758 16.3908 60.2866C13.5147 55.8189 11.2529 50.7648 11.1226 45.4547C10.9923 40.1399 13.3379 34.5506 17.9219 31.8653C29.1052 25.308 44.1792 37.92 54.7249 28.7752C62.8692 21.7105 62.59 8.87512 76.1747 7.828L76.1793 7.82334Z" stroke="#FF5722" stroke-width="0.321118" stroke-linecap="round" stroke-linejoin="round"/>
<path d="M75.6633 11.6213C84.2404 10.9605 92.7291 17.8017 93.9018 26.323C94.5115 30.7348 93.3853 35.277 94.2183 39.6517C95.3911 45.7948 100.199 50.579 105.225 54.2975C110.251 58.0206 115.826 61.1945 119.787 66.0392C123.743 70.8839 125.697 78.1114 122.388 83.4169C119.186 88.5548 112.182 90.3372 109.036 95.5123C103.922 103.922 111.843 115.566 107.505 124.404C105.313 128.867 100.236 131.482 95.2654 131.529C90.2951 131.575 85.5016 129.36 81.6528 126.219C77.1106 122.514 73.4666 117.395 67.9657 115.361C59.0163 112.048 49.6061 118.135 40.2472 120.006C31.4327 121.77 21.5153 119.289 15.642 112.485C9.76884 105.676 9.11264 94.4466 15.2232 87.852C18.5228 84.2918 23.5444 81.9974 25.1127 77.404C27.0627 71.703 22.702 66.0253 19.4443 60.9572C16.7404 56.7547 14.6089 52.0031 14.4879 47.0095C14.3669 42.0112 16.5728 36.757 20.8823 34.2299C31.4001 28.0635 45.5759 39.9216 55.4933 31.3212C63.1536 24.6755 62.893 12.6033 75.6633 11.6213Z" stroke="#FF5722" stroke-width="0.307157" stroke-linecap="round" stroke-linejoin="round"/>
<path d="M75.1464 15.4183C83.1837 14.7994 91.1279 21.2078 92.2308 29.1892C92.7986 33.3218 91.7468 37.5755 92.5287 41.6756C93.627 47.4324 98.132 51.9095 102.837 55.3952C107.542 58.881 112.768 61.8548 116.473 66.3924C120.177 70.9299 122.011 77.6967 118.907 82.667C115.905 87.4791 109.348 89.1499 106.402 93.9946C101.613 101.874 109.031 112.778 104.969 121.052C102.916 125.231 98.1599 127.679 93.5013 127.726C88.8475 127.773 84.3564 125.697 80.7497 122.756C76.496 119.284 73.0801 114.49 67.9282 112.587C59.5466 109.483 50.7321 115.184 41.9688 116.938C33.7128 118.59 24.4237 116.268 18.9228 109.892C13.4219 103.516 12.8076 92.9986 18.5272 86.8183C21.6174 83.4814 26.3225 81.336 27.7931 77.0312C29.6174 71.6931 25.536 66.3737 22.483 61.6268C19.9513 57.6896 17.9548 53.2405 17.8431 48.5633C17.7267 43.8862 19.7977 38.9623 23.8326 36.5935C33.6849 30.818 46.9625 41.9269 56.247 33.871C63.4186 27.6487 63.1766 16.3398 75.1371 15.4183H75.1464Z" stroke="#FF5722" stroke-width="0.288541" stroke-linecap="round" stroke-linejoin="round"/>
<path d="M74.6296 19.2202C82.1224 18.6431 89.5313 24.6141 90.5599 32.0603C91.0904 35.9137 90.1084 39.8788 90.8344 43.6997C91.8583 49.0656 96.0561 53.2402 100.449 56.4932C104.838 59.7416 109.711 62.5154 113.164 66.7504C116.617 70.9808 118.325 77.2915 115.435 81.9267C112.638 86.4131 106.523 87.9721 103.777 92.4864C99.3138 99.8302 106.225 109.999 102.441 117.715C100.528 121.61 96.0933 123.896 91.7512 123.937C87.4092 123.979 83.2253 122.043 79.8606 119.302C75.8908 116.068 72.7122 111.6 67.9094 109.822C60.0955 106.927 51.8767 112.247 43.7045 113.88C36.007 115.421 27.3461 113.257 22.2175 107.309C17.0889 101.366 16.5165 91.5556 21.8498 85.7988C24.7306 82.69 29.1146 80.6841 30.4875 76.6771C32.1908 71.6975 28.3839 66.7411 25.5357 62.3152C23.1762 58.6433 21.3146 54.4967 21.2076 50.136C21.1006 45.7753 23.0273 41.1819 26.7923 38.976C35.9744 33.5914 48.3584 43.9463 57.0146 36.435C63.7023 30.6316 63.4742 20.0905 74.6296 19.2295V19.2202Z" stroke="#FF5722" stroke-width="0.274579" stroke-linecap="round" stroke-linejoin="round"/>
<path d="M74.1079 23.0182C81.0562 22.483 87.9299 28.0211 88.8793 34.9275C89.3726 38.5017 88.4605 42.1783 89.1353 45.7245C90.0847 50.6995 93.98 54.5716 98.0522 57.5873C102.124 60.603 106.639 63.172 109.845 67.0998C113.052 71.0231 114.634 76.873 111.953 81.1732C109.356 85.3338 103.688 86.7811 101.142 90.9696C97.0004 97.7783 103.413 107.212 99.9044 114.365C98.1313 117.976 94.0172 120.098 89.9916 120.136C85.966 120.173 82.0847 118.381 78.9666 115.835C75.2853 112.834 72.3348 108.692 67.881 107.044C60.6302 104.364 53.0118 109.292 45.4353 110.805C38.2962 112.233 30.2636 110.223 25.5073 104.713C20.7511 99.1977 20.2205 90.104 25.1676 84.7614C27.8389 81.8759 31.9064 80.019 33.1769 76.3006C34.7546 71.6839 31.2223 67.0859 28.5836 62.9812C26.3962 59.5792 24.6696 55.7304 24.5719 51.6862C24.4742 47.6419 26.2613 43.3836 29.7517 41.3359C38.2683 36.3423 49.7494 45.9479 57.7821 38.981C63.9857 33.6012 63.7716 23.8233 74.1172 23.0275L74.1079 23.0182Z" stroke="#FF5722" stroke-width="0.260618" stroke-linecap="round" stroke-linejoin="round"/>
<path d="M73.5918 26.8162C79.9956 26.3229 86.3295 31.4282 87.2091 37.7901C87.6652 41.085 86.8228 44.473 87.4464 47.7401C88.3214 52.3288 91.9095 55.8937 95.6652 58.6767C99.4162 61.4551 103.581 63.8286 106.532 67.4446C109.487 71.0607 110.944 76.4546 108.473 80.415C106.081 84.2498 100.854 85.5808 98.5041 89.4436C94.6879 95.7217 100.598 104.415 97.3592 111.01C95.7257 114.342 91.9328 116.292 88.2236 116.329C84.5145 116.366 80.9356 114.71 78.0595 112.364C74.6669 109.6 71.949 105.779 67.8443 104.257C61.1613 101.786 54.1386 106.328 47.1531 107.724C40.5725 109.041 33.1681 107.189 28.7842 102.107C24.4002 97.0247 23.9115 88.6431 28.4677 83.7193C30.9296 81.0619 34.6806 79.3493 35.8534 75.9194C37.3101 71.6611 34.0524 67.426 31.6184 63.6424C29.5986 60.5057 28.0116 56.9594 27.9185 53.227C27.8255 49.4992 29.4729 45.5714 32.6934 43.6865C40.5445 39.0838 51.1275 47.9355 58.5318 41.5178C64.2514 36.5568 64.056 27.5468 73.5872 26.8115L73.5918 26.8162Z" stroke="#FF5722" stroke-width="0.246656" stroke-linecap="round" stroke-linejoin="round"/>
<path d="M73.0745 30.6132C78.9338 30.1618 84.7325 34.8343 85.533 40.6563C85.9472 43.672 85.1793 46.7715 85.7471 49.7639C86.5475 53.9617 89.8332 57.2288 93.2678 59.7698C96.7023 62.3108 100.509 64.4842 103.213 67.7931C105.917 71.102 107.253 76.0398 104.991 79.6652C102.804 83.1742 98.0194 84.3935 95.8693 87.9258C92.3742 93.6687 97.7867 101.627 94.8221 107.663C93.3283 110.711 89.8564 112.498 86.4591 112.531C83.0618 112.564 79.7901 111.051 77.1606 108.906C74.0565 106.374 71.5667 102.879 67.811 101.487C61.6958 99.2255 55.2687 103.381 48.879 104.661C42.8568 105.867 36.0808 104.173 32.0691 99.5233C28.0575 94.8741 27.6107 87.1998 31.7806 82.6949C34.0331 80.2609 37.463 78.6972 38.538 75.5558C39.869 71.6605 36.8905 67.7838 34.666 64.3213C32.8184 61.4499 31.3617 58.2061 31.2826 54.7901C31.1988 51.3788 32.7067 47.786 35.6526 46.0594C42.8382 41.8477 52.523 49.9501 59.2944 44.0722C64.5253 39.5347 64.3485 31.288 73.0745 30.6132Z" stroke="#FF5722" stroke-width="0.232694" stroke-linecap="round" stroke-linejoin="round"/>
</g>
<defs>
<clipPath id="clip0_824_3019">
<rect width="135" height="143.112" fill="white"/>
</clipPath>
</defs>
</svg>
