<svg width="85" height="352" viewBox="0 0 85 352" fill="none" xmlns="http://www.w3.org/2000/svg">
<g clip-path="url(#clip0_786_1907)">
<path d="M189.886 0.55998C214.996 -1.37425 239.832 18.6433 243.266 43.5936C245.051 56.5037 241.755 69.803 244.193 82.61C247.615 100.59 261.692 114.588 276.411 125.483C291.129 136.379 307.45 145.673 319.021 159.853C330.603 174.034 336.326 195.184 326.632 210.715C317.258 225.743 296.76 230.973 287.558 246.115C272.588 270.733 295.764 304.806 283.072 330.672C276.663 343.73 261.795 351.387 247.249 351.525C232.702 351.662 218.67 345.184 207.397 335.982C194.098 325.132 183.431 310.162 167.339 304.199C141.141 294.505 113.604 312.325 86.2158 317.796C60.4185 322.958 31.3822 315.701 14.2031 295.775C-2.976 275.849 -4.91023 242.979 12.967 223.671C22.6153 213.245 37.3223 206.538 41.9232 193.09C47.6343 176.403 34.8616 159.784 25.3278 144.952C17.4192 132.648 11.1816 118.742 10.8268 104.127C10.472 89.5 16.9271 74.1178 29.551 66.7242C60.3269 48.6753 101.827 83.3883 130.852 58.209C153.273 38.7752 152.506 3.44415 189.886 0.55998Z" stroke="#FF5722" stroke-width="0.858384" stroke-miterlimit="10"/>
<path d="M188.616 9.89976C212.387 8.06854 235.907 27.0217 239.157 50.6444C240.84 62.8678 237.727 75.4574 240.038 87.5778C243.277 104.608 256.611 117.85 270.54 128.162C284.468 138.474 299.919 147.276 310.884 160.701C321.848 174.126 327.262 194.143 318.094 208.85C309.213 223.077 289.813 228.032 281.092 242.362C266.923 265.664 288.863 297.928 276.846 322.42C270.78 334.781 256.703 342.026 242.923 342.163C229.154 342.3 215.866 336.154 205.199 327.456C192.61 317.19 182.515 303.009 167.27 297.367C142.469 288.188 116.397 305.058 90.4736 310.243C66.0498 315.13 38.5586 308.263 22.2951 289.401C6.0201 270.539 4.20033 239.42 21.1277 221.142C30.2723 211.277 44.1896 204.913 48.5387 192.198C53.9408 176.403 41.8548 160.666 32.8246 146.623C25.3395 134.972 19.4338 121.81 19.0904 107.973C18.7471 94.1244 24.8702 79.5662 36.8189 72.5618C65.9582 55.4742 105.249 88.3446 132.718 64.5044C153.937 46.0892 153.216 12.6466 188.616 9.91121V9.89976Z" stroke="#FF5722" stroke-width="0.824049" stroke-linecap="round" stroke-linejoin="round"/>
<path d="M187.345 19.2386C209.777 17.5104 231.969 35.3991 235.048 57.6827C236.639 69.2194 233.698 81.0994 235.872 92.5446C238.928 108.614 251.518 121.112 264.657 130.851C277.807 140.591 292.388 148.889 302.735 161.559C313.081 174.228 318.197 193.124 309.533 207.007C301.155 220.432 282.843 225.113 274.614 238.642C261.246 260.639 281.95 291.083 270.608 314.191C264.886 325.865 251.598 332.697 238.596 332.823C225.594 332.949 213.062 327.158 202.99 318.94C191.11 309.246 181.577 295.867 167.201 290.545C143.796 281.881 119.189 297.801 94.7196 302.688C71.6691 307.301 45.7344 300.823 30.3751 283.014C15.0157 265.217 13.299 235.837 29.2764 218.59C37.906 209.273 51.0335 203.276 55.1423 191.27C60.2469 176.357 48.8361 161.513 40.3095 148.259C33.2364 137.272 27.674 124.843 27.3536 111.784C27.0331 98.7135 32.8015 84.9679 44.0749 78.3641C71.5775 62.2379 108.648 93.2542 134.583 70.7645C154.612 53.3908 153.925 21.8252 187.333 19.25L187.345 19.2386Z" stroke="#FF5722" stroke-width="0.789713" stroke-linecap="round" stroke-linejoin="round"/>
<path d="M186.075 28.5784C207.168 26.9531 228.044 43.7775 230.928 64.7335C232.427 75.5835 229.658 86.7539 231.706 97.5123C234.59 112.62 246.413 124.385 258.774 133.53C271.135 142.686 284.846 150.492 294.586 162.406C304.314 174.321 309.121 192.095 300.984 205.142C293.109 217.778 275.884 222.161 268.147 234.888C255.569 255.569 275.049 284.205 264.382 305.939C258.991 316.915 246.505 323.347 234.281 323.462C222.058 323.576 210.27 318.128 200.804 310.403C189.634 301.293 180.672 288.703 167.144 283.702C145.135 275.553 121.993 290.523 98.9772 295.124C77.3001 299.461 52.9106 293.361 38.4668 276.628C24.0231 259.884 22.4093 232.267 37.4368 216.049C45.5514 207.294 57.9007 201.651 61.7577 190.355C66.5532 176.335 55.8291 162.372 47.8175 149.908C41.1679 139.573 35.926 127.888 35.6285 115.607C35.3309 103.315 40.7559 90.3934 51.354 84.1787C77.22 69.014 112.082 98.1761 136.471 77.0255C155.31 60.6819 154.669 30.9933 186.075 28.5784Z" stroke="#FF5722" stroke-width="0.755378" stroke-linecap="round" stroke-linejoin="round"/>
<path d="M184.804 37.9172C204.57 36.395 224.107 52.1549 226.819 71.7833C228.216 81.9465 225.629 92.4074 227.552 102.491C230.253 116.648 241.332 127.658 252.903 136.231C264.474 144.803 277.327 152.117 286.437 163.276C295.547 174.435 300.057 191.076 292.423 203.299C285.041 215.133 268.914 219.242 261.67 231.157C249.893 250.533 268.136 277.349 258.145 297.698C253.097 307.976 241.4 313.996 229.944 314.111C218.499 314.225 207.454 309.121 198.584 301.887C188.123 293.349 179.723 281.561 167.053 276.88C146.44 269.246 124.763 283.266 103.212 287.581C82.9084 291.644 60.0639 285.933 46.5358 270.253C33.0077 254.573 31.4969 228.707 45.563 213.508C53.1625 205.302 64.7336 200.026 68.3502 189.439C72.8367 176.312 62.7993 163.23 55.2913 151.556C49.0652 141.873 44.1552 130.932 43.8805 119.429C43.5944 107.927 48.6875 95.818 58.6104 89.9924C82.8397 75.7891 115.493 103.109 138.326 83.2971C155.963 67.9949 155.367 40.1833 184.781 37.9172H184.804Z" stroke="#FF5722" stroke-width="0.709597" stroke-linecap="round" stroke-linejoin="round"/>
<path d="M183.533 47.2687C201.96 45.8495 220.181 60.5336 222.71 78.8458C224.015 88.3224 221.6 98.0736 223.385 107.47C225.903 120.666 236.227 130.933 247.031 138.933C257.824 146.921 269.807 153.743 278.299 164.158C286.791 174.561 290.991 190.081 283.884 201.48C277.006 212.513 261.967 216.347 255.214 227.449C244.238 245.51 261.234 270.517 251.929 289.493C247.225 299.073 236.318 304.692 225.64 304.795C214.962 304.898 204.672 300.137 196.398 293.396C186.635 285.442 178.818 274.454 167.006 270.082C147.79 262.963 127.578 276.045 107.48 280.062C88.5502 283.851 67.2508 278.529 54.6383 263.902C42.0258 249.287 40.618 225.16 53.7341 211.003C60.8187 203.357 71.6 198.424 74.9763 188.57C79.1652 176.324 69.8031 164.135 62.7987 153.251C56.996 144.22 52.418 134.023 52.1547 123.299C51.8915 112.575 56.6298 101.278 65.8889 95.8533C88.4701 82.6113 118.926 108.077 140.213 89.6042C156.66 75.3322 156.099 49.409 183.533 47.2916V47.2687Z" stroke="#FF5722" stroke-width="0.675262" stroke-linecap="round" stroke-linejoin="round"/>
<path d="M182.251 56.6075C199.339 55.2913 216.243 68.911 218.578 85.8956C219.791 94.6855 217.548 103.727 219.208 112.448C221.543 124.683 231.122 134.205 241.137 141.622C251.151 149.038 262.253 155.356 270.139 165.016C278.024 174.664 281.916 189.05 275.323 199.626C268.937 209.858 254.997 213.417 248.736 223.718C238.55 240.462 254.321 263.661 245.692 281.252C241.331 290.134 231.214 295.353 221.314 295.444C211.414 295.536 201.868 291.129 194.2 284.869C185.147 277.487 177.891 267.301 166.938 263.249C149.106 256.657 130.371 268.777 111.738 272.497C94.1812 276.01 74.427 271.066 62.7301 257.515C51.0332 243.953 49.7284 221.589 61.8946 208.45C68.4641 201.354 78.4671 196.787 81.5916 187.643C85.4715 176.289 76.7847 164.981 70.2953 154.887C64.9161 146.52 60.6699 137.055 60.4296 127.109C60.1892 117.164 64.5842 106.691 73.168 101.656C94.1126 89.3749 122.348 112.998 142.102 95.8643C157.358 82.6337 156.832 58.5875 182.274 56.6304L182.251 56.6075Z" stroke="#FF5722" stroke-width="0.640927" stroke-linecap="round" stroke-linejoin="round"/>
<path d="M180.982 65.9463C196.73 64.7332 212.307 77.2885 214.47 92.9339C215.592 101.037 213.52 109.369 215.054 117.404C217.206 128.688 226.03 137.455 235.266 144.3C244.491 151.132 254.734 156.969 261.99 165.862C269.258 174.755 272.84 188.02 266.763 197.76C260.88 207.191 248.027 210.464 242.248 219.963C232.863 235.403 247.398 256.782 239.432 273C235.415 281.195 226.087 285.99 216.965 286.082C207.844 286.173 199.042 282.099 191.969 276.331C183.626 269.532 176.942 260.136 166.847 256.393C150.412 250.316 133.141 261.486 115.962 264.92C99.7788 268.159 81.5696 263.604 70.7883 251.105C60.007 238.607 58.8053 217.995 70.01 205.886C76.0645 199.351 85.2893 195.139 88.1734 186.704C91.7558 176.232 83.7442 165.816 77.7584 156.512C72.7912 148.798 68.8884 140.076 68.6595 130.897C68.4306 121.73 72.4822 112.07 80.4022 107.435C99.7101 96.1157 125.736 117.884 143.945 102.101C158.012 89.901 157.531 67.7432 180.97 65.9349L180.982 65.9463Z" stroke="#FF5722" stroke-width="0.606591" stroke-linecap="round" stroke-linejoin="round"/>
<path d="M179.711 75.2861C194.121 74.176 208.381 85.6669 210.35 99.9847C211.368 107.401 209.48 115.024 210.876 122.383C212.845 132.706 220.925 140.741 229.372 146.99C237.818 153.239 247.18 158.584 253.83 166.721C260.479 174.859 263.764 187.002 258.202 195.918C252.823 204.547 241.057 207.546 235.769 216.233C227.174 230.356 240.485 249.927 233.194 264.772C229.52 272.268 220.982 276.663 212.627 276.743C204.272 276.823 196.227 273.104 189.76 267.827C182.126 261.601 176.003 253.006 166.767 249.584C151.728 244.022 135.922 254.242 120.208 257.389C105.398 260.354 88.734 256.188 78.8683 244.754C69.0026 233.32 67.9039 214.447 78.1587 203.368C83.6982 197.383 92.1332 193.537 94.777 185.812C98.0503 176.232 90.7255 166.698 85.2547 158.183C80.711 151.121 77.1287 143.144 76.9341 134.744C76.7281 126.354 80.4363 117.519 87.6811 113.272C105.352 102.915 129.17 122.841 145.822 108.385C158.687 97.2264 158.252 76.9457 179.711 75.2861Z" stroke="#FF5722" stroke-width="0.572256" stroke-linecap="round" stroke-linejoin="round"/>
<path d="M178.441 84.6249C191.512 83.6178 204.445 94.0443 206.241 107.034C207.168 113.753 205.452 120.677 206.722 127.35C208.508 136.712 215.832 144.002 223.501 149.679C231.169 155.356 239.661 160.197 245.693 167.579C251.724 174.961 254.7 185.971 249.653 194.063C244.766 201.892 234.099 204.616 229.303 212.501C221.509 225.32 233.584 243.071 226.969 256.531C223.627 263.329 215.89 267.312 208.313 267.392C200.736 267.461 193.434 264.084 187.563 259.3C180.639 253.646 175.088 245.852 166.698 242.751C153.056 237.703 138.715 246.985 124.455 249.835C111.018 252.525 95.899 248.748 86.9489 238.367C77.9988 227.987 76.9917 210.876 86.308 200.827C91.3324 195.402 98.9892 191.9 101.381 184.907C104.357 176.22 97.7073 167.568 92.7402 159.842C88.6199 153.433 85.3695 146.2 85.1864 138.577C85.0033 130.966 88.3681 122.955 94.9376 119.098C110.961 109.701 132.569 127.773 147.688 114.668C159.362 104.539 158.962 86.1471 178.43 84.6478L178.441 84.6249Z" stroke="#FF5722" stroke-width="0.537921" stroke-linecap="round" stroke-linejoin="round"/>
</g>
<defs>
<clipPath id="clip0_786_1907">
<rect width="332" height="351.949" fill="white"/>
</clipPath>
</defs>
</svg>
