<svg width="70" height="69" viewBox="0 0 70 69" fill="none" xmlns="http://www.w3.org/2000/svg">
<g filter="url(#filter0_d_913_2480)">
<mask id="path-1-inside-1_913_2480" fill="white">
<path fill-rule="evenodd" clip-rule="evenodd" d="M45 4.19788C45 2.00728 43.2242 0.231445 41.0336 0.231445H28.9664C26.7758 0.231445 25 2.00728 25 4.19788V7.28198C25 9.47258 26.7758 11.2484 28.9664 11.2484H39.4518C39.7718 11.2484 40.0786 11.3766 40.3034 11.6044L41.7468 13.0665L44.3009 15.6536C44.4725 15.8275 44.7606 15.7997 44.8958 15.5962C44.9366 15.5347 44.959 15.4628 44.9601 15.389L44.978 14.2349L44.9648 13.1623L44.9477 11.7833C44.9454 11.5908 44.9375 11.3982 44.9243 11.2059C44.9013 10.8704 45 10.5317 45 10.1954V4.19788Z"/>
</mask>
<path d="M41.7468 13.0665L42.8143 12.0127L41.7468 13.0665ZM44.3009 15.6536L45.3684 14.5998L45.3684 14.5998L44.3009 15.6536ZM44.8958 15.5962L46.145 16.4265V16.4265L44.8958 15.5962ZM44.9601 15.389L43.4603 15.3658V15.3658L44.9601 15.389ZM44.978 14.2349L46.4778 14.2581L46.4781 14.2372L46.4779 14.2164L44.978 14.2349ZM44.9648 13.1623L43.4649 13.1808V13.1808L44.9648 13.1623ZM44.9477 11.7833L46.4476 11.7648V11.7647L44.9477 11.7833ZM40.3034 11.6044L41.3709 10.5506L40.3034 11.6044ZM44.9243 11.2059L46.4208 11.1031L44.9243 11.2059ZM28.9664 1.73145H41.0336V-1.26855H28.9664V1.73145ZM26.5 7.28198V4.19788H23.5V7.28198H26.5ZM39.4518 9.74841H28.9664V12.7484H39.4518V9.74841ZM42.8143 12.0127L41.3709 10.5506L39.236 12.6582L40.6794 14.1203L42.8143 12.0127ZM45.3684 14.5998L42.8143 12.0127L40.6794 14.1203L43.2335 16.7074L45.3684 14.5998ZM43.6465 14.766C44.0379 14.1771 44.8716 14.0966 45.3684 14.5998L43.2335 16.7074C44.0735 17.5583 45.4832 17.4223 46.145 16.4265L43.6465 14.766ZM43.4603 15.3658C43.4636 15.1521 43.5282 14.9439 43.6465 14.766L46.145 16.4265C46.345 16.1256 46.4543 15.7735 46.4599 15.4122L43.4603 15.3658ZM43.4782 14.2116L43.4603 15.3658L46.4599 15.4123L46.4778 14.2581L43.4782 14.2116ZM43.4649 13.1808L43.4781 14.2534L46.4779 14.2164L46.4646 13.1438L43.4649 13.1808ZM43.4478 11.8018L43.4649 13.1808L46.4646 13.1438L46.4476 11.7648L43.4478 11.8018ZM43.4279 11.3088C43.4392 11.4731 43.4458 11.6375 43.4478 11.8018L46.4476 11.7647C46.4449 11.544 46.4359 11.3233 46.4208 11.1031L43.4279 11.3088ZM43.5 4.19788V10.1954H46.5V4.19788H43.5ZM39.4518 12.7484C39.3707 12.7484 39.293 12.7159 39.236 12.6582L41.3709 10.5506C40.8642 10.0373 40.173 9.74841 39.4518 9.74841V12.7484ZM46.4208 11.1031C46.4212 11.1082 46.42 11.0973 46.4226 11.0607C46.4254 11.0217 46.4308 10.973 46.4411 10.8933C46.4573 10.7679 46.5 10.4838 46.5 10.1954H43.5C43.5 10.2434 43.4933 10.2968 43.4659 10.5087C43.4443 10.6756 43.4051 10.977 43.4279 11.3088L46.4208 11.1031ZM23.5 7.28198C23.5 10.301 25.9474 12.7484 28.9664 12.7484V9.74841C27.6043 9.74841 26.5 8.64415 26.5 7.28198H23.5ZM41.0336 1.73145C42.3957 1.73145 43.5 2.8357 43.5 4.19788H46.5C46.5 1.17885 44.0526 -1.26855 41.0336 -1.26855V1.73145ZM28.9664 -1.26855C25.9474 -1.26855 23.5 1.17885 23.5 4.19788H26.5C26.5 2.8357 27.6043 1.73145 28.9664 1.73145V-1.26855Z" fill="url(#paint0_linear_913_2480)" mask="url(#path-1-inside-1_913_2480)"/>
</g>
<defs>
<filter id="filter0_d_913_2480" x="0.685646" y="0.231445" width="68.6287" height="68.2182" filterUnits="userSpaceOnUse" color-interpolation-filters="sRGB">
<feFlood flood-opacity="0" result="BackgroundImageFix"/>
<feColorMatrix in="SourceAlpha" type="matrix" values="0 0 0 0 0 0 0 0 0 0 0 0 0 0 0 0 0 0 127 0" result="hardAlpha"/>
<feOffset dy="28.3667"/>
<feGaussianBlur stdDeviation="12.1572"/>
<feComposite in2="hardAlpha" operator="out"/>
<feColorMatrix type="matrix" values="0 0 0 0 0.968627 0 0 0 0 0.380392 0 0 0 0 0.631373 0 0 0 0.1 0"/>
<feBlend mode="normal" in2="BackgroundImageFix" result="effect1_dropShadow_913_2480"/>
<feBlend mode="normal" in="SourceGraphic" in2="effect1_dropShadow_913_2480" result="shape"/>
</filter>
<linearGradient id="paint0_linear_913_2480" x1="25" y1="0.231445" x2="40.0542" y2="19.6103" gradientUnits="userSpaceOnUse">
<stop stop-color="#F761A1"/>
<stop offset="1" stop-color="#8C1BAB"/>
</linearGradient>
</defs>
</svg>
