<svg width="173" height="66" viewBox="0 0 173 66" fill="none" xmlns="http://www.w3.org/2000/svg">
<rect width="173" height="65.057" rx="5" fill="#111827"/>
<path d="M33.1328 37.5717C36.9378 35.4379 39.8222 33.812 40.0708 33.6855C40.8662 33.2536 41.6875 32.1102 40.0708 31.2221C39.5489 30.9428 36.7385 29.3675 33.1328 27.3359L28.1343 32.4918L33.1328 37.5716V37.5717Z" fill="#FFD900"/>
<path d="M28.1346 32.4922L12.2188 48.8754C12.5923 48.9259 13.0141 48.8247 13.5113 48.5455C14.5553 47.9619 25.6223 41.7891 33.1331 37.5733L28.1346 32.4922Z" fill="#F43249"/>
<path d="M28.1339 32.4916L33.1325 27.3612C33.1325 27.3612 14.6301 17.0482 13.5107 16.4394C13.0889 16.1842 12.6163 16.1085 12.1934 16.1842L28.1339 32.4916Z" fill="#00EE76"/>
<path d="M28.1338 32.492L12.1932 16.1846C11.5462 16.3373 10.9995 16.9211 10.9995 18.115V46.9447C10.9995 48.0375 11.4226 48.8245 12.2179 48.9004L28.1338 32.492Z" fill="#2891DD"/>
<path d="M61.2605 17.06C61.0285 16.572 60.6925 16.196 60.2525 15.932C59.8125 15.66 59.3005 15.524 58.7165 15.524C58.1325 15.524 57.6045 15.66 57.1325 15.932C56.6685 16.196 56.3005 16.58 56.0285 17.084C55.7645 17.58 55.6325 18.156 55.6325 18.812C55.6325 19.468 55.7645 20.044 56.0285 20.54C56.3005 21.036 56.6685 21.42 57.1325 21.692C57.6045 21.956 58.1325 22.088 58.7165 22.088C59.5325 22.088 60.2045 21.844 60.7325 21.356C61.2605 20.868 61.5685 20.208 61.6565 19.376H58.3205V18.488H62.8205V19.328C62.7565 20.016 62.5405 20.648 62.1725 21.224C61.8045 21.792 61.3205 22.244 60.7205 22.58C60.1205 22.908 59.4525 23.072 58.7165 23.072C57.9405 23.072 57.2325 22.892 56.5925 22.532C55.9525 22.164 55.4445 21.656 55.0685 21.008C54.7005 20.36 54.5165 19.628 54.5165 18.812C54.5165 17.996 54.7005 17.264 55.0685 16.616C55.4445 15.96 55.9525 15.452 56.5925 15.092C57.2325 14.724 57.9405 14.54 58.7165 14.54C59.6045 14.54 60.3885 14.76 61.0685 15.2C61.7565 15.64 62.2565 16.26 62.5685 17.06H61.2605ZM70.2643 19.46C70.2643 19.668 70.2523 19.888 70.2283 20.12H64.9723C65.0123 20.768 65.2323 21.276 65.6323 21.644C66.0403 22.004 66.5323 22.184 67.1083 22.184C67.5803 22.184 67.9723 22.076 68.2843 21.86C68.6043 21.636 68.8283 21.34 68.9563 20.972H70.1323C69.9563 21.604 69.6043 22.12 69.0763 22.52C68.5483 22.912 67.8923 23.108 67.1083 23.108C66.4843 23.108 65.9243 22.968 65.4283 22.688C64.9403 22.408 64.5563 22.012 64.2763 21.5C63.9963 20.98 63.8563 20.38 63.8563 19.7C63.8563 19.02 63.9923 18.424 64.2643 17.912C64.5363 17.4 64.9163 17.008 65.4043 16.736C65.9003 16.456 66.4683 16.316 67.1083 16.316C67.7323 16.316 68.2843 16.452 68.7643 16.724C69.2443 16.996 69.6123 17.372 69.8683 17.852C70.1323 18.324 70.2643 18.86 70.2643 19.46ZM69.1363 19.232C69.1363 18.816 69.0443 18.46 68.8603 18.164C68.6763 17.86 68.4243 17.632 68.1043 17.48C67.7923 17.32 67.4443 17.24 67.0603 17.24C66.5083 17.24 66.0363 17.416 65.6443 17.768C65.2603 18.12 65.0403 18.608 64.9843 19.232H69.1363ZM73.0377 17.324V21.2C73.0377 21.52 73.1057 21.748 73.2417 21.884C73.3777 22.012 73.6137 22.076 73.9497 22.076H74.7537V23H73.7697C73.1617 23 72.7057 22.86 72.4017 22.58C72.0977 22.3 71.9457 21.84 71.9457 21.2V17.324H71.0937V16.424H71.9457V14.768H73.0377V16.424H74.7537V17.324H73.0377ZM83.0393 15.356C82.8313 15.356 82.6553 15.284 82.5113 15.14C82.3673 14.996 82.2953 14.82 82.2953 14.612C82.2953 14.404 82.3673 14.228 82.5113 14.084C82.6553 13.94 82.8313 13.868 83.0393 13.868C83.2393 13.868 83.4073 13.94 83.5433 14.084C83.6873 14.228 83.7593 14.404 83.7593 14.612C83.7593 14.82 83.6873 14.996 83.5433 15.14C83.4073 15.284 83.2393 15.356 83.0393 15.356ZM83.5673 16.424V23H82.4753V16.424H83.5673ZM86.7604 17.324V21.2C86.7604 21.52 86.8284 21.748 86.9644 21.884C87.1004 22.012 87.3364 22.076 87.6724 22.076H88.4764V23H87.4924C86.8844 23 86.4284 22.86 86.1244 22.58C85.8204 22.3 85.6684 21.84 85.6684 21.2V17.324H84.8164V16.424H85.6684V14.768H86.7604V16.424H88.4764V17.324H86.7604ZM95.8667 23.108C95.2507 23.108 94.6907 22.968 94.1867 22.688C93.6907 22.408 93.2987 22.012 93.0107 21.5C92.7307 20.98 92.5907 20.38 92.5907 19.7C92.5907 19.028 92.7347 18.436 93.0227 17.924C93.3187 17.404 93.7187 17.008 94.2227 16.736C94.7267 16.456 95.2907 16.316 95.9147 16.316C96.5387 16.316 97.1027 16.456 97.6067 16.736C98.1107 17.008 98.5067 17.4 98.7947 17.912C99.0907 18.424 99.2387 19.02 99.2387 19.7C99.2387 20.38 99.0867 20.98 98.7827 21.5C98.4867 22.012 98.0827 22.408 97.5707 22.688C97.0587 22.968 96.4907 23.108 95.8667 23.108ZM95.8667 22.148C96.2587 22.148 96.6267 22.056 96.9707 21.872C97.3147 21.688 97.5907 21.412 97.7987 21.044C98.0147 20.676 98.1227 20.228 98.1227 19.7C98.1227 19.172 98.0187 18.724 97.8107 18.356C97.6027 17.988 97.3307 17.716 96.9947 17.54C96.6587 17.356 96.2947 17.264 95.9027 17.264C95.5027 17.264 95.1347 17.356 94.7987 17.54C94.4707 17.716 94.2067 17.988 94.0067 18.356C93.8067 18.724 93.7067 19.172 93.7067 19.7C93.7067 20.236 93.8027 20.688 93.9947 21.056C94.1947 21.424 94.4587 21.7 94.7867 21.884C95.1147 22.06 95.4747 22.148 95.8667 22.148ZM103.878 16.304C104.678 16.304 105.326 16.548 105.822 17.036C106.318 17.516 106.566 18.212 106.566 19.124V23H105.486V19.28C105.486 18.624 105.322 18.124 104.994 17.78C104.666 17.428 104.218 17.252 103.65 17.252C103.074 17.252 102.614 17.432 102.27 17.792C101.934 18.152 101.766 18.676 101.766 19.364V23H100.674V16.424H101.766V17.36C101.982 17.024 102.274 16.764 102.642 16.58C103.018 16.396 103.43 16.304 103.878 16.304Z" fill="white"/>
<path d="M64.4045 39.1466C64.0805 38.5226 63.6305 38.0546 63.0545 37.7426C62.4785 37.4186 61.8125 37.2566 61.0565 37.2566C60.2285 37.2566 59.4905 37.4426 58.8425 37.8146C58.1945 38.1866 57.6845 38.7146 57.3125 39.3986C56.9525 40.0826 56.7725 40.8746 56.7725 41.7746C56.7725 42.6746 56.9525 43.4726 57.3125 44.1686C57.6845 44.8526 58.1945 45.3806 58.8425 45.7526C59.4905 46.1246 60.2285 46.3106 61.0565 46.3106C62.1725 46.3106 63.0785 45.9986 63.7745 45.3746C64.4705 44.7506 64.8965 43.9046 65.0525 42.8366H60.3545V41.1986H67.2485V42.8006C67.1165 43.7726 66.7685 44.6666 66.2045 45.4826C65.6525 46.2986 64.9265 46.9526 64.0265 47.4446C63.1385 47.9246 62.1485 48.1646 61.0565 48.1646C59.8805 48.1646 58.8065 47.8946 57.8345 47.3546C56.8625 46.8026 56.0885 46.0406 55.5125 45.0686C54.9485 44.0966 54.6665 42.9986 54.6665 41.7746C54.6665 40.5506 54.9485 39.4526 55.5125 38.4806C56.0885 37.5086 56.8625 36.7526 57.8345 36.2126C58.8185 35.6606 59.8925 35.3846 61.0565 35.3846C62.3885 35.3846 63.5705 35.7146 64.6025 36.3746C65.6465 37.0226 66.4025 37.9466 66.8705 39.1466H64.4045ZM73.5744 48.2186C72.6384 48.2186 71.7924 48.0086 71.0364 47.5886C70.2804 47.1566 69.6864 46.5566 69.2544 45.7886C68.8224 45.0086 68.6064 44.1086 68.6064 43.0886C68.6064 42.0806 68.8284 41.1866 69.2724 40.4066C69.7164 39.6266 70.3224 39.0266 71.0904 38.6066C71.8584 38.1866 72.7164 37.9766 73.6644 37.9766C74.6124 37.9766 75.4704 38.1866 76.2384 38.6066C77.0064 39.0266 77.6124 39.6266 78.0564 40.4066C78.5004 41.1866 78.7224 42.0806 78.7224 43.0886C78.7224 44.0966 78.4944 44.9906 78.0384 45.7706C77.5824 46.5506 76.9584 47.1566 76.1664 47.5886C75.3864 48.0086 74.5224 48.2186 73.5744 48.2186ZM73.5744 46.4366C74.1024 46.4366 74.5944 46.3106 75.0504 46.0586C75.5184 45.8066 75.8964 45.4286 76.1844 44.9246C76.4724 44.4206 76.6164 43.8086 76.6164 43.0886C76.6164 42.3686 76.4784 41.7626 76.2024 41.2706C75.9264 40.7666 75.5604 40.3886 75.1044 40.1366C74.6484 39.8846 74.1564 39.7586 73.6284 39.7586C73.1004 39.7586 72.6084 39.8846 72.1524 40.1366C71.7084 40.3886 71.3544 40.7666 71.0904 41.2706C70.8264 41.7626 70.6944 42.3686 70.6944 43.0886C70.6944 44.1566 70.9644 44.9846 71.5044 45.5726C72.0564 46.1486 72.7464 46.4366 73.5744 46.4366ZM85.0529 48.2186C84.1169 48.2186 83.2709 48.0086 82.5149 47.5886C81.7589 47.1566 81.1649 46.5566 80.7329 45.7886C80.3009 45.0086 80.0849 44.1086 80.0849 43.0886C80.0849 42.0806 80.3069 41.1866 80.7509 40.4066C81.1949 39.6266 81.8009 39.0266 82.5689 38.6066C83.3369 38.1866 84.1949 37.9766 85.1429 37.9766C86.0909 37.9766 86.9489 38.1866 87.7169 38.6066C88.4849 39.0266 89.0909 39.6266 89.5349 40.4066C89.9789 41.1866 90.2009 42.0806 90.2009 43.0886C90.2009 44.0966 89.9729 44.9906 89.5169 45.7706C89.0609 46.5506 88.4369 47.1566 87.6449 47.5886C86.8649 48.0086 86.0009 48.2186 85.0529 48.2186ZM85.0529 46.4366C85.5809 46.4366 86.0729 46.3106 86.5289 46.0586C86.9969 45.8066 87.3749 45.4286 87.6629 44.9246C87.9509 44.4206 88.0949 43.8086 88.0949 43.0886C88.0949 42.3686 87.9569 41.7626 87.6809 41.2706C87.4049 40.7666 87.0389 40.3886 86.5829 40.1366C86.1269 39.8846 85.6349 39.7586 85.1069 39.7586C84.5789 39.7586 84.0869 39.8846 83.6309 40.1366C83.1869 40.3886 82.8329 40.7666 82.5689 41.2706C82.3049 41.7626 82.1729 42.3686 82.1729 43.0886C82.1729 44.1566 82.4429 44.9846 82.9829 45.5726C83.5349 46.1486 84.2249 46.4366 85.0529 46.4366ZM96.2254 37.9766C96.9934 37.9766 97.6714 38.1326 98.2594 38.4446C98.8594 38.7446 99.3274 39.1226 99.6634 39.5786V38.1386H101.733V48.2186C101.733 49.1306 101.541 49.9406 101.157 50.6486C100.773 51.3686 100.215 51.9326 99.4834 52.3406C98.7634 52.7486 97.8994 52.9526 96.8914 52.9526C95.5474 52.9526 94.4314 52.6346 93.5434 51.9986C92.6554 51.3746 92.1514 50.5226 92.0314 49.4426H94.0654C94.2214 49.9586 94.5514 50.3726 95.0554 50.6846C95.5714 51.0086 96.1834 51.1706 96.8914 51.1706C97.7194 51.1706 98.3854 50.9186 98.8894 50.4146C99.4054 49.9106 99.6634 49.1786 99.6634 48.2186V46.5626C99.3154 47.0306 98.8414 47.4266 98.2414 47.7506C97.6534 48.0626 96.9814 48.2186 96.2254 48.2186C95.3614 48.2186 94.5694 48.0026 93.8494 47.5706C93.1414 47.1266 92.5774 46.5146 92.1574 45.7346C91.7494 44.9426 91.5454 44.0486 91.5454 43.0526C91.5454 42.0566 91.7494 41.1746 92.1574 40.4066C92.5774 39.6386 93.1414 39.0446 93.8494 38.6246C94.5694 38.1926 95.3614 37.9766 96.2254 37.9766ZM99.6634 43.0886C99.6634 42.4046 99.5194 41.8106 99.2314 41.3066C98.9554 40.8026 98.5894 40.4186 98.1334 40.1546C97.6774 39.8906 97.1854 39.7586 96.6574 39.7586C96.1294 39.7586 95.6374 39.8906 95.1814 40.1546C94.7254 40.4066 94.3534 40.7846 94.0654 41.2886C93.7894 41.7806 93.6514 42.3686 93.6514 43.0526C93.6514 43.7366 93.7894 44.3366 94.0654 44.8526C94.3534 45.3686 94.7254 45.7646 95.1814 46.0406C95.6494 46.3046 96.1414 46.4366 96.6574 46.4366C97.1854 46.4366 97.6774 46.3046 98.1334 46.0406C98.5894 45.7766 98.9554 45.3926 99.2314 44.8886C99.5194 44.3726 99.6634 43.7726 99.6634 43.0886ZM106.481 34.7366V48.0566H104.429V34.7366H106.481ZM118.265 42.8546C118.265 43.2266 118.241 43.5626 118.193 43.8626H110.615C110.675 44.6546 110.969 45.2906 111.497 45.7706C112.025 46.2506 112.673 46.4906 113.441 46.4906C114.545 46.4906 115.325 46.0286 115.781 45.1046H117.995C117.695 46.0166 117.149 46.7666 116.357 47.3546C115.577 47.9306 114.605 48.2186 113.441 48.2186C112.493 48.2186 111.641 48.0086 110.885 47.5886C110.141 47.1566 109.553 46.5566 109.121 45.7886C108.701 45.0086 108.491 44.1086 108.491 43.0886C108.491 42.0686 108.695 41.1746 109.103 40.4066C109.523 39.6266 110.105 39.0266 110.849 38.6066C111.605 38.1866 112.469 37.9766 113.441 37.9766C114.377 37.9766 115.211 38.1806 115.943 38.5886C116.675 38.9966 117.245 39.5726 117.653 40.3166C118.061 41.0486 118.265 41.8946 118.265 42.8546ZM116.123 42.2066C116.111 41.4506 115.841 40.8446 115.313 40.3886C114.785 39.9326 114.131 39.7046 113.351 39.7046C112.643 39.7046 112.037 39.9326 111.533 40.3886C111.029 40.8326 110.729 41.4386 110.633 42.2066H116.123ZM133.708 39.2726C133.708 39.9086 133.558 40.5086 133.258 41.0726C132.958 41.6366 132.478 42.0986 131.818 42.4586C131.158 42.8066 130.312 42.9806 129.28 42.9806H127.012V48.0566H124.96V35.5466H129.28C130.24 35.5466 131.05 35.7146 131.71 36.0506C132.382 36.3746 132.88 36.8186 133.204 37.3826C133.54 37.9466 133.708 38.5766 133.708 39.2726ZM129.28 41.3066C130.06 41.3066 130.642 41.1326 131.026 40.7846C131.41 40.4246 131.602 39.9206 131.602 39.2726C131.602 37.9046 130.828 37.2206 129.28 37.2206H127.012V41.3066H129.28ZM137.717 34.7366V48.0566H135.665V34.7366H137.717ZM139.727 43.0526C139.727 42.0566 139.931 41.1746 140.339 40.4066C140.759 39.6386 141.323 39.0446 142.031 38.6246C142.751 38.1926 143.543 37.9766 144.407 37.9766C145.187 37.9766 145.865 38.1326 146.441 38.4446C147.029 38.7446 147.497 39.1226 147.845 39.5786V38.1386H149.915V48.0566H147.845V46.5806C147.497 47.0486 147.023 47.4386 146.423 47.7506C145.823 48.0626 145.139 48.2186 144.371 48.2186C143.519 48.2186 142.739 48.0026 142.031 47.5706C141.323 47.1266 140.759 46.5146 140.339 45.7346C139.931 44.9426 139.727 44.0486 139.727 43.0526ZM147.845 43.0886C147.845 42.4046 147.701 41.8106 147.413 41.3066C147.137 40.8026 146.771 40.4186 146.315 40.1546C145.859 39.8906 145.367 39.7586 144.839 39.7586C144.311 39.7586 143.819 39.8906 143.363 40.1546C142.907 40.4066 142.535 40.7846 142.247 41.2886C141.971 41.7806 141.833 42.3686 141.833 43.0526C141.833 43.7366 141.971 44.3366 142.247 44.8526C142.535 45.3686 142.907 45.7646 143.363 46.0406C143.831 46.3046 144.323 46.4366 144.839 46.4366C145.367 46.4366 145.859 46.3046 146.315 46.0406C146.771 45.7766 147.137 45.3926 147.413 44.8886C147.701 44.3726 147.845 43.7726 147.845 43.0886ZM161.538 38.1386L155.454 52.7186H153.33L155.346 47.8946L151.44 38.1386H153.726L156.516 45.6986L159.414 38.1386H161.538Z" fill="white"/>
</svg>
