<svg width="23" height="21" viewBox="0 0 23 21" fill="none" xmlns="http://www.w3.org/2000/svg">
<path d="M21.5944 5.99345L21.5943 5.99346L21.5949 6.00201C21.6955 7.63951 21.6955 12.6118 21.5949 14.2493L21.5948 14.2493L21.5945 14.2554C21.513 15.7567 21.1537 16.945 20.0929 17.9244L20.0917 17.9255C19.0189 18.9198 17.6965 19.2644 16.0327 19.3372L16.0327 19.3371L16.0254 19.3375C14.2439 19.4309 8.84549 19.4309 7.064 19.3375L7.05886 19.3373C5.39443 19.2602 4.07434 18.9158 2.99527 17.9233C1.93073 16.9442 1.57187 15.757 1.49498 14.2579L1.49502 14.2579L1.4945 14.2493C1.39384 12.6118 1.39384 7.63499 1.4945 5.99749L1.49452 5.99749L1.49485 5.99147C1.57648 4.48822 1.93167 3.30181 2.99527 2.32354C4.07399 1.33137 5.39845 0.986876 7.0568 0.914169L7.0568 0.9142L7.064 0.913822C8.84549 0.820468 14.2439 0.820468 16.0254 0.913822L16.0254 0.913838L16.0305 0.914076C17.6961 0.991182 19.0196 1.33603 20.0929 2.32698L20.0941 2.32806C21.1586 3.30719 21.5175 4.49431 21.5944 5.99345ZM18.3027 18.8125L18.3056 18.8115C19.4702 18.3803 20.3928 17.5419 20.8725 16.4291C21.2307 15.598 21.3379 14.3186 21.3759 13.1931C21.4041 12.3557 21.3947 11.494 21.3873 10.8156C21.3844 10.5545 21.3819 10.3206 21.3819 10.1257C21.3819 9.93072 21.3844 9.69684 21.3873 9.43585C21.3947 8.75786 21.4041 7.89689 21.3759 7.05995C21.3379 5.93451 21.2306 4.65592 20.8729 3.82319L20.8715 3.82008C20.3877 2.70604 19.4666 1.86647 18.3036 1.43916L18.3014 1.43836C17.4352 1.12283 16.0844 1.02351 14.8632 0.987829C13.9541 0.961262 13.023 0.9695 12.2866 0.976014C12.0084 0.978475 11.758 0.980691 11.5471 0.980691C11.3326 0.980691 11.077 0.978303 10.7927 0.975648C10.0593 0.9688 9.13501 0.960169 8.23323 0.986124C7.01246 1.02126 5.66091 1.12049 4.79153 1.43884L4.79153 1.43884L4.78869 1.43989C3.62405 1.8711 2.70142 2.70948 2.22179 3.82224L2.22179 3.82224L2.22075 3.82465C1.86621 4.65431 1.75881 5.93213 1.72022 7.05782C1.69129 7.90154 1.70029 8.76863 1.70735 9.4493C1.71 9.7047 1.71238 9.93385 1.71238 10.1257C1.71238 10.3206 1.70982 10.5545 1.70696 10.8155C1.69954 11.4935 1.69011 12.3545 1.71837 13.1914C1.75637 14.3168 1.86367 15.5954 2.22137 16.4282L2.22272 16.4313C2.70659 17.5453 3.6277 18.3849 4.79066 18.8122L4.79285 18.813C5.65902 19.1285 7.00989 19.2278 8.23102 19.2635C9.14012 19.2901 10.0713 19.2819 10.8076 19.2753C11.0858 19.2729 11.3362 19.2707 11.5471 19.2707C11.7616 19.2707 12.0172 19.273 12.3016 19.2757C13.0349 19.2826 13.9592 19.2912 14.861 19.2652C16.0818 19.2301 17.4333 19.1309 18.3027 18.8125ZM6.76731 10.1257C6.76731 7.77984 8.83565 5.77729 11.5471 5.77729C14.2586 5.77729 16.3269 7.77984 16.3269 10.1257C16.3269 12.4715 14.2586 14.4741 11.5471 14.4741C8.83565 14.4741 6.76731 12.4715 6.76731 10.1257ZM7.04723 10.1257C7.04723 12.5163 9.13496 14.3451 11.5471 14.3451C13.9593 14.3451 16.047 12.5163 16.047 10.1257C16.047 7.73572 13.9649 5.90627 11.5471 5.90627C9.12931 5.90627 7.04723 7.73572 7.04723 10.1257ZM17.8687 4.7211C17.8687 4.86428 17.7259 5.08835 17.4008 5.08835C17.075 5.08835 16.9329 4.86368 16.9329 4.7211C16.9329 4.58048 17.0778 4.35384 17.4008 4.35384C17.7238 4.35384 17.8687 4.58048 17.8687 4.7211Z" fill="#111827" stroke="#111827" stroke-width="1.68761"/>
</svg>
