<svg width="412" height="225" viewBox="0 0 412 225" fill="none" xmlns="http://www.w3.org/2000/svg">
<path d="M0 0H412V220C412 222.761 409.761 225 407 225H5C2.23858 225 0 222.761 0 220V0Z" fill="url(#paint0_linear_585_22592)"/>
<rect x="120" y="37" width="173" height="65.057" rx="5" fill="#111827"/>
<path d="M155.738 61.5467C154.256 61.5467 151.961 59.8613 149.544 59.9222C146.356 59.9628 143.432 61.7701 141.787 64.6334C138.477 70.3803 140.934 78.8687 144.163 83.5393C145.747 85.8137 147.615 88.3724 150.093 88.2912C152.469 88.1897 153.362 86.7479 156.246 86.7479C159.109 86.7479 159.921 88.2912 162.439 88.2303C164.998 88.1897 166.623 85.9153 168.186 83.6206C169.994 80.9806 170.745 78.4219 170.786 78.2798C170.725 78.2595 165.81 76.3709 165.749 70.6849C165.709 65.9331 169.628 63.6587 169.811 63.5571C167.577 60.2877 164.145 59.9222 162.947 59.8409C159.82 59.5973 157.2 61.5467 155.738 61.5467ZM161.018 56.7543C162.338 55.1703 163.211 52.9568 162.967 50.7637C161.079 50.8449 158.804 52.0227 157.444 53.6067C156.225 55.0079 155.169 57.2619 155.454 59.4145C157.545 59.577 159.698 58.3382 161.018 56.7543Z" fill="white"/>
<path d="M191.046 54.06C190.814 53.572 190.478 53.196 190.038 52.932C189.598 52.66 189.086 52.524 188.502 52.524C187.918 52.524 187.39 52.66 186.918 52.932C186.454 53.196 186.086 53.58 185.814 54.084C185.55 54.58 185.418 55.156 185.418 55.812C185.418 56.468 185.55 57.044 185.814 57.54C186.086 58.036 186.454 58.42 186.918 58.692C187.39 58.956 187.918 59.088 188.502 59.088C189.318 59.088 189.99 58.844 190.518 58.356C191.046 57.868 191.354 57.208 191.442 56.376H188.106V55.488H192.606V56.328C192.542 57.016 192.326 57.648 191.958 58.224C191.59 58.792 191.106 59.244 190.506 59.58C189.906 59.908 189.238 60.072 188.502 60.072C187.726 60.072 187.018 59.892 186.378 59.532C185.738 59.164 185.23 58.656 184.854 58.008C184.486 57.36 184.302 56.628 184.302 55.812C184.302 54.996 184.486 54.264 184.854 53.616C185.23 52.96 185.738 52.452 186.378 52.092C187.018 51.724 187.726 51.54 188.502 51.54C189.39 51.54 190.174 51.76 190.854 52.2C191.542 52.64 192.042 53.26 192.354 54.06H191.046ZM200.049 56.46C200.049 56.668 200.037 56.888 200.013 57.12H194.757C194.797 57.768 195.017 58.276 195.417 58.644C195.825 59.004 196.317 59.184 196.893 59.184C197.365 59.184 197.757 59.076 198.069 58.86C198.389 58.636 198.613 58.34 198.741 57.972H199.917C199.741 58.604 199.389 59.12 198.861 59.52C198.333 59.912 197.677 60.108 196.893 60.108C196.269 60.108 195.709 59.968 195.213 59.688C194.725 59.408 194.341 59.012 194.061 58.5C193.781 57.98 193.641 57.38 193.641 56.7C193.641 56.02 193.777 55.424 194.049 54.912C194.321 54.4 194.701 54.008 195.189 53.736C195.685 53.456 196.253 53.316 196.893 53.316C197.517 53.316 198.069 53.452 198.549 53.724C199.029 53.996 199.397 54.372 199.653 54.852C199.917 55.324 200.049 55.86 200.049 56.46ZM198.921 56.232C198.921 55.816 198.829 55.46 198.645 55.164C198.461 54.86 198.209 54.632 197.889 54.48C197.577 54.32 197.229 54.24 196.845 54.24C196.293 54.24 195.821 54.416 195.429 54.768C195.045 55.12 194.825 55.608 194.769 56.232H198.921ZM202.823 54.324V58.2C202.823 58.52 202.891 58.748 203.027 58.884C203.163 59.012 203.399 59.076 203.735 59.076H204.539V60H203.555C202.947 60 202.491 59.86 202.187 59.58C201.883 59.3 201.731 58.84 201.731 58.2V54.324H200.879V53.424H201.731V51.768H202.823V53.424H204.539V54.324H202.823ZM212.824 52.356C212.616 52.356 212.44 52.284 212.296 52.14C212.152 51.996 212.08 51.82 212.08 51.612C212.08 51.404 212.152 51.228 212.296 51.084C212.44 50.94 212.616 50.868 212.824 50.868C213.024 50.868 213.192 50.94 213.328 51.084C213.472 51.228 213.544 51.404 213.544 51.612C213.544 51.82 213.472 51.996 213.328 52.14C213.192 52.284 213.024 52.356 212.824 52.356ZM213.352 53.424V60H212.26V53.424H213.352ZM216.546 54.324V58.2C216.546 58.52 216.614 58.748 216.75 58.884C216.886 59.012 217.122 59.076 217.458 59.076H218.262V60H217.278C216.67 60 216.214 59.86 215.91 59.58C215.606 59.3 215.454 58.84 215.454 58.2V54.324H214.602V53.424H215.454V51.768H216.546V53.424H218.262V54.324H216.546ZM225.652 60.108C225.036 60.108 224.476 59.968 223.972 59.688C223.476 59.408 223.084 59.012 222.796 58.5C222.516 57.98 222.376 57.38 222.376 56.7C222.376 56.028 222.52 55.436 222.808 54.924C223.104 54.404 223.504 54.008 224.008 53.736C224.512 53.456 225.076 53.316 225.7 53.316C226.324 53.316 226.888 53.456 227.392 53.736C227.896 54.008 228.292 54.4 228.58 54.912C228.876 55.424 229.024 56.02 229.024 56.7C229.024 57.38 228.872 57.98 228.568 58.5C228.272 59.012 227.868 59.408 227.356 59.688C226.844 59.968 226.276 60.108 225.652 60.108ZM225.652 59.148C226.044 59.148 226.412 59.056 226.756 58.872C227.1 58.688 227.376 58.412 227.584 58.044C227.8 57.676 227.908 57.228 227.908 56.7C227.908 56.172 227.804 55.724 227.596 55.356C227.388 54.988 227.116 54.716 226.78 54.54C226.444 54.356 226.08 54.264 225.688 54.264C225.288 54.264 224.92 54.356 224.584 54.54C224.256 54.716 223.992 54.988 223.792 55.356C223.592 55.724 223.492 56.172 223.492 56.7C223.492 57.236 223.588 57.688 223.78 58.056C223.98 58.424 224.244 58.7 224.572 58.884C224.9 59.06 225.26 59.148 225.652 59.148ZM233.664 53.304C234.464 53.304 235.112 53.548 235.608 54.036C236.104 54.516 236.352 55.212 236.352 56.124V60H235.272V56.28C235.272 55.624 235.108 55.124 234.78 54.78C234.452 54.428 234.004 54.252 233.436 54.252C232.86 54.252 232.4 54.432 232.056 54.792C231.72 55.152 231.552 55.676 231.552 56.364V60H230.46V53.424H231.552V54.36C231.768 54.024 232.06 53.764 232.428 53.58C232.804 53.396 233.216 53.304 233.664 53.304Z" fill="white"/>
<path d="M192.678 82.5006H187.44L186.54 85.0566H184.398L188.88 72.5286H191.256L195.738 85.0566H193.578L192.678 82.5006ZM192.102 80.8266L190.068 75.0126L188.016 80.8266H192.102ZM199.738 76.5966C200.086 76.1406 200.56 75.7566 201.16 75.4446C201.76 75.1326 202.438 74.9766 203.194 74.9766C204.058 74.9766 204.844 75.1926 205.552 75.6246C206.272 76.0446 206.836 76.6386 207.244 77.4066C207.652 78.1746 207.856 79.0566 207.856 80.0526C207.856 81.0486 207.652 81.9426 207.244 82.7346C206.836 83.5146 206.272 84.1266 205.552 84.5706C204.844 85.0026 204.058 85.2186 203.194 85.2186C202.438 85.2186 201.766 85.0686 201.178 84.7686C200.59 84.4566 200.11 84.0726 199.738 83.6166V89.7726H197.686V75.1386H199.738V76.5966ZM205.768 80.0526C205.768 79.3686 205.624 78.7806 205.336 78.2886C205.06 77.7846 204.688 77.4066 204.22 77.1546C203.764 76.8906 203.272 76.7586 202.744 76.7586C202.228 76.7586 201.736 76.8906 201.268 77.1546C200.812 77.4186 200.44 77.8026 200.152 78.3066C199.876 78.8106 199.738 79.4046 199.738 80.0886C199.738 80.7726 199.876 81.3726 200.152 81.8886C200.44 82.3926 200.812 82.7766 201.268 83.0406C201.736 83.3046 202.228 83.4366 202.744 83.4366C203.272 83.4366 203.764 83.3046 204.22 83.0406C204.688 82.7646 205.06 82.3686 205.336 81.8526C205.624 81.3366 205.768 80.7366 205.768 80.0526ZM211.938 76.5966C212.286 76.1406 212.76 75.7566 213.36 75.4446C213.96 75.1326 214.638 74.9766 215.394 74.9766C216.258 74.9766 217.044 75.1926 217.752 75.6246C218.472 76.0446 219.036 76.6386 219.444 77.4066C219.852 78.1746 220.056 79.0566 220.056 80.0526C220.056 81.0486 219.852 81.9426 219.444 82.7346C219.036 83.5146 218.472 84.1266 217.752 84.5706C217.044 85.0026 216.258 85.2186 215.394 85.2186C214.638 85.2186 213.966 85.0686 213.378 84.7686C212.79 84.4566 212.31 84.0726 211.938 83.6166V89.7726H209.886V75.1386H211.938V76.5966ZM217.968 80.0526C217.968 79.3686 217.824 78.7806 217.536 78.2886C217.26 77.7846 216.888 77.4066 216.42 77.1546C215.964 76.8906 215.472 76.7586 214.944 76.7586C214.428 76.7586 213.936 76.8906 213.468 77.1546C213.012 77.4186 212.64 77.8026 212.352 78.3066C212.076 78.8106 211.938 79.4046 211.938 80.0886C211.938 80.7726 212.076 81.3726 212.352 81.8886C212.64 82.3926 213.012 82.7766 213.468 83.0406C213.936 83.3046 214.428 83.4366 214.944 83.4366C215.472 83.4366 215.964 83.3046 216.42 83.0406C216.888 82.7646 217.26 82.3686 217.536 81.8526C217.824 81.3366 217.968 80.7366 217.968 80.0526ZM230.883 85.1826C230.043 85.1826 229.287 85.0386 228.615 84.7506C227.943 84.4506 227.415 84.0306 227.031 83.4906C226.647 82.9506 226.455 82.3206 226.455 81.6006H228.651C228.699 82.1406 228.909 82.5846 229.281 82.9326C229.665 83.2806 230.199 83.4546 230.883 83.4546C231.591 83.4546 232.143 83.2866 232.539 82.9506C232.935 82.6026 233.133 82.1586 233.133 81.6186C233.133 81.1986 233.007 80.8566 232.755 80.5926C232.515 80.3286 232.209 80.1246 231.837 79.9806C231.477 79.8366 230.973 79.6806 230.325 79.5126C229.509 79.2966 228.843 79.0806 228.327 78.8646C227.823 78.6366 227.391 78.2886 227.031 77.8206C226.671 77.3526 226.491 76.7286 226.491 75.9486C226.491 75.2286 226.671 74.5986 227.031 74.0586C227.391 73.5186 227.895 73.1046 228.543 72.8166C229.191 72.5286 229.941 72.3846 230.793 72.3846C232.005 72.3846 232.995 72.6906 233.763 73.3026C234.543 73.9026 234.975 74.7306 235.059 75.7866H232.791C232.755 75.3306 232.539 74.9406 232.143 74.6166C231.747 74.2926 231.225 74.1306 230.577 74.1306C229.989 74.1306 229.509 74.2806 229.137 74.5806C228.765 74.8806 228.579 75.3126 228.579 75.8766C228.579 76.2606 228.693 76.5786 228.921 76.8306C229.161 77.0706 229.461 77.2626 229.821 77.4066C230.181 77.5506 230.673 77.7066 231.297 77.8746C232.125 78.1026 232.797 78.3306 233.313 78.5586C233.841 78.7866 234.285 79.1406 234.645 79.6206C235.017 80.0886 235.203 80.7186 235.203 81.5106C235.203 82.1466 235.029 82.7466 234.681 83.3106C234.345 83.8746 233.847 84.3306 233.187 84.6786C232.539 85.0146 231.771 85.1826 230.883 85.1826ZM240.018 76.8126V82.3026C240.018 82.6746 240.102 82.9446 240.27 83.1126C240.45 83.2686 240.75 83.3466 241.17 83.3466H242.43V85.0566H240.81C239.886 85.0566 239.178 84.8406 238.686 84.4086C238.194 83.9766 237.948 83.2746 237.948 82.3026V76.8126H236.778V75.1386H237.948V72.6726H240.018V75.1386H242.43V76.8126H240.018ZM248.623 85.2186C247.687 85.2186 246.841 85.0086 246.085 84.5886C245.329 84.1566 244.735 83.5566 244.303 82.7886C243.871 82.0086 243.655 81.1086 243.655 80.0886C243.655 79.0806 243.877 78.1866 244.321 77.4066C244.765 76.6266 245.371 76.0266 246.139 75.6066C246.907 75.1866 247.765 74.9766 248.713 74.9766C249.661 74.9766 250.519 75.1866 251.287 75.6066C252.055 76.0266 252.661 76.6266 253.105 77.4066C253.549 78.1866 253.771 79.0806 253.771 80.0886C253.771 81.0966 253.543 81.9906 253.087 82.7706C252.631 83.5506 252.007 84.1566 251.215 84.5886C250.435 85.0086 249.571 85.2186 248.623 85.2186ZM248.623 83.4366C249.151 83.4366 249.643 83.3106 250.099 83.0586C250.567 82.8066 250.945 82.4286 251.233 81.9246C251.521 81.4206 251.665 80.8086 251.665 80.0886C251.665 79.3686 251.527 78.7626 251.251 78.2706C250.975 77.7666 250.609 77.3886 250.153 77.1366C249.697 76.8846 249.205 76.7586 248.677 76.7586C248.149 76.7586 247.657 76.8846 247.201 77.1366C246.757 77.3886 246.403 77.7666 246.139 78.2706C245.875 78.7626 245.743 79.3686 245.743 80.0886C245.743 81.1566 246.013 81.9846 246.553 82.5726C247.105 83.1486 247.795 83.4366 248.623 83.4366ZM257.852 76.5786C258.152 76.0746 258.548 75.6846 259.04 75.4086C259.544 75.1206 260.138 74.9766 260.822 74.9766V77.1006H260.3C259.496 77.1006 258.884 77.3046 258.464 77.7126C258.056 78.1206 257.852 78.8286 257.852 79.8366V85.0566H255.8V75.1386H257.852V76.5786ZM271.798 79.8546C271.798 80.2266 271.774 80.5626 271.726 80.8626H264.148C264.208 81.6546 264.502 82.2906 265.03 82.7706C265.558 83.2506 266.206 83.4906 266.974 83.4906C268.078 83.4906 268.858 83.0286 269.314 82.1046H271.528C271.228 83.0166 270.682 83.7666 269.89 84.3546C269.11 84.9306 268.138 85.2186 266.974 85.2186C266.026 85.2186 265.174 85.0086 264.418 84.5886C263.674 84.1566 263.086 83.5566 262.654 82.7886C262.234 82.0086 262.024 81.1086 262.024 80.0886C262.024 79.0686 262.228 78.1746 262.636 77.4066C263.056 76.6266 263.638 76.0266 264.382 75.6066C265.138 75.1866 266.002 74.9766 266.974 74.9766C267.91 74.9766 268.744 75.1806 269.476 75.5886C270.208 75.9966 270.778 76.5726 271.186 77.3166C271.594 78.0486 271.798 78.8946 271.798 79.8546ZM269.656 79.2066C269.644 78.4506 269.374 77.8446 268.846 77.3886C268.318 76.9326 267.664 76.7046 266.884 76.7046C266.176 76.7046 265.57 76.9326 265.066 77.3886C264.562 77.8326 264.262 78.4386 264.166 79.2066H269.656Z" fill="white"/>
<rect x="120" y="123.057" width="173" height="65.057" rx="5" fill="#111827"/>
<path d="M153.133 160.628C156.938 158.495 159.822 156.869 160.071 156.742C160.866 156.31 161.688 155.167 160.071 154.279C159.549 153.999 156.738 152.424 153.133 150.393L148.134 155.548L153.133 160.628V160.628Z" fill="#FFD900"/>
<path d="M148.135 155.549L132.219 171.932C132.592 171.983 133.014 171.881 133.511 171.602C134.555 171.019 145.622 164.846 153.133 160.63L148.135 155.549Z" fill="#F43249"/>
<path d="M148.134 155.548L153.132 150.418C153.132 150.418 134.63 140.105 133.511 139.496C133.089 139.241 132.616 139.165 132.193 139.241L148.134 155.548Z" fill="#00EE76"/>
<path d="M148.134 155.549L132.193 139.241C131.546 139.394 131 139.978 131 141.172V170.001C131 171.094 131.423 171.881 132.218 171.957L148.134 155.549Z" fill="#2891DD"/>
<path d="M181.26 140.117C181.028 139.629 180.692 139.253 180.252 138.989C179.812 138.717 179.3 138.581 178.716 138.581C178.132 138.581 177.604 138.717 177.132 138.989C176.668 139.253 176.3 139.637 176.028 140.141C175.764 140.637 175.632 141.213 175.632 141.869C175.632 142.525 175.764 143.101 176.028 143.597C176.3 144.093 176.668 144.477 177.132 144.749C177.604 145.013 178.132 145.145 178.716 145.145C179.532 145.145 180.204 144.901 180.732 144.413C181.26 143.925 181.568 143.265 181.656 142.433H178.32V141.545H182.82V142.385C182.756 143.073 182.54 143.705 182.172 144.281C181.804 144.849 181.32 145.301 180.72 145.637C180.12 145.965 179.452 146.129 178.716 146.129C177.94 146.129 177.232 145.949 176.592 145.589C175.952 145.221 175.444 144.713 175.068 144.065C174.7 143.417 174.516 142.685 174.516 141.869C174.516 141.053 174.7 140.321 175.068 139.673C175.444 139.017 175.952 138.509 176.592 138.149C177.232 137.781 177.94 137.597 178.716 137.597C179.604 137.597 180.388 137.817 181.068 138.257C181.756 138.697 182.256 139.317 182.568 140.117H181.26ZM190.264 142.517C190.264 142.725 190.252 142.945 190.228 143.177H184.972C185.012 143.825 185.232 144.333 185.632 144.701C186.04 145.061 186.532 145.241 187.108 145.241C187.58 145.241 187.972 145.133 188.284 144.917C188.604 144.693 188.828 144.397 188.956 144.029H190.132C189.956 144.661 189.604 145.177 189.076 145.577C188.548 145.969 187.892 146.165 187.108 146.165C186.484 146.165 185.924 146.025 185.428 145.745C184.94 145.465 184.556 145.069 184.276 144.557C183.996 144.037 183.856 143.437 183.856 142.757C183.856 142.077 183.992 141.481 184.264 140.969C184.536 140.457 184.916 140.065 185.404 139.793C185.9 139.513 186.468 139.373 187.108 139.373C187.732 139.373 188.284 139.509 188.764 139.781C189.244 140.053 189.612 140.429 189.868 140.909C190.132 141.381 190.264 141.917 190.264 142.517ZM189.136 142.289C189.136 141.873 189.044 141.517 188.86 141.221C188.676 140.917 188.424 140.689 188.104 140.537C187.792 140.377 187.444 140.297 187.06 140.297C186.508 140.297 186.036 140.473 185.644 140.825C185.26 141.177 185.04 141.665 184.984 142.289H189.136ZM193.038 140.381V144.257C193.038 144.577 193.106 144.805 193.242 144.941C193.378 145.069 193.614 145.133 193.95 145.133H194.754V146.057H193.77C193.162 146.057 192.706 145.917 192.402 145.637C192.098 145.357 191.946 144.897 191.946 144.257V140.381H191.094V139.481H191.946V137.825H193.038V139.481H194.754V140.381H193.038ZM203.039 138.413C202.831 138.413 202.655 138.341 202.511 138.197C202.367 138.053 202.295 137.877 202.295 137.669C202.295 137.461 202.367 137.285 202.511 137.141C202.655 136.997 202.831 136.925 203.039 136.925C203.239 136.925 203.407 136.997 203.543 137.141C203.687 137.285 203.759 137.461 203.759 137.669C203.759 137.877 203.687 138.053 203.543 138.197C203.407 138.341 203.239 138.413 203.039 138.413ZM203.567 139.481V146.057H202.475V139.481H203.567ZM206.76 140.381V144.257C206.76 144.577 206.828 144.805 206.964 144.941C207.1 145.069 207.336 145.133 207.672 145.133H208.476V146.057H207.492C206.884 146.057 206.428 145.917 206.124 145.637C205.82 145.357 205.668 144.897 205.668 144.257V140.381H204.816V139.481H205.668V137.825H206.76V139.481H208.476V140.381H206.76ZM215.867 146.165C215.251 146.165 214.691 146.025 214.187 145.745C213.691 145.465 213.299 145.069 213.011 144.557C212.731 144.037 212.591 143.437 212.591 142.757C212.591 142.085 212.735 141.493 213.023 140.981C213.319 140.461 213.719 140.065 214.223 139.793C214.727 139.513 215.291 139.373 215.915 139.373C216.539 139.373 217.103 139.513 217.607 139.793C218.111 140.065 218.507 140.457 218.795 140.969C219.091 141.481 219.239 142.077 219.239 142.757C219.239 143.437 219.087 144.037 218.783 144.557C218.487 145.069 218.083 145.465 217.571 145.745C217.059 146.025 216.491 146.165 215.867 146.165ZM215.867 145.205C216.259 145.205 216.627 145.113 216.971 144.929C217.315 144.745 217.591 144.469 217.799 144.101C218.015 143.733 218.123 143.285 218.123 142.757C218.123 142.229 218.019 141.781 217.811 141.413C217.603 141.045 217.331 140.773 216.995 140.597C216.659 140.413 216.295 140.321 215.903 140.321C215.503 140.321 215.135 140.413 214.799 140.597C214.471 140.773 214.207 141.045 214.007 141.413C213.807 141.781 213.707 142.229 213.707 142.757C213.707 143.293 213.803 143.745 213.995 144.113C214.195 144.481 214.459 144.757 214.787 144.941C215.115 145.117 215.475 145.205 215.867 145.205ZM223.878 139.361C224.678 139.361 225.326 139.605 225.822 140.093C226.318 140.573 226.566 141.269 226.566 142.181V146.057H225.486V142.337C225.486 141.681 225.322 141.181 224.994 140.837C224.666 140.485 224.218 140.309 223.65 140.309C223.074 140.309 222.614 140.489 222.27 140.849C221.934 141.209 221.766 141.733 221.766 142.421V146.057H220.674V139.481H221.766V140.417C221.982 140.081 222.274 139.821 222.642 139.637C223.018 139.453 223.43 139.361 223.878 139.361Z" fill="white"/>
<path d="M184.404 162.203C184.08 161.579 183.63 161.111 183.054 160.799C182.478 160.475 181.812 160.313 181.056 160.313C180.228 160.313 179.49 160.499 178.842 160.871C178.194 161.243 177.684 161.771 177.312 162.455C176.952 163.139 176.772 163.931 176.772 164.831C176.772 165.731 176.952 166.529 177.312 167.225C177.684 167.909 178.194 168.437 178.842 168.809C179.49 169.181 180.228 169.367 181.056 169.367C182.172 169.367 183.078 169.055 183.774 168.431C184.47 167.807 184.896 166.961 185.052 165.893H180.354V164.255H187.248V165.857C187.116 166.829 186.768 167.723 186.204 168.539C185.652 169.355 184.926 170.009 184.026 170.501C183.138 170.981 182.148 171.221 181.056 171.221C179.88 171.221 178.806 170.951 177.834 170.411C176.862 169.859 176.088 169.097 175.512 168.125C174.948 167.153 174.666 166.055 174.666 164.831C174.666 163.607 174.948 162.509 175.512 161.537C176.088 160.565 176.862 159.809 177.834 159.269C178.818 158.717 179.892 158.441 181.056 158.441C182.388 158.441 183.57 158.771 184.602 159.431C185.646 160.079 186.402 161.003 186.87 162.203H184.404ZM193.574 171.275C192.638 171.275 191.792 171.065 191.036 170.645C190.28 170.213 189.686 169.613 189.254 168.845C188.822 168.065 188.606 167.165 188.606 166.145C188.606 165.137 188.828 164.243 189.272 163.463C189.716 162.683 190.322 162.083 191.09 161.663C191.858 161.243 192.716 161.033 193.664 161.033C194.612 161.033 195.47 161.243 196.238 161.663C197.006 162.083 197.612 162.683 198.056 163.463C198.5 164.243 198.722 165.137 198.722 166.145C198.722 167.153 198.494 168.047 198.038 168.827C197.582 169.607 196.958 170.213 196.166 170.645C195.386 171.065 194.522 171.275 193.574 171.275ZM193.574 169.493C194.102 169.493 194.594 169.367 195.05 169.115C195.518 168.863 195.896 168.485 196.184 167.981C196.472 167.477 196.616 166.865 196.616 166.145C196.616 165.425 196.478 164.819 196.202 164.327C195.926 163.823 195.56 163.445 195.104 163.193C194.648 162.941 194.156 162.815 193.628 162.815C193.1 162.815 192.608 162.941 192.152 163.193C191.708 163.445 191.354 163.823 191.09 164.327C190.826 164.819 190.694 165.425 190.694 166.145C190.694 167.213 190.964 168.041 191.504 168.629C192.056 169.205 192.746 169.493 193.574 169.493ZM205.053 171.275C204.117 171.275 203.271 171.065 202.515 170.645C201.759 170.213 201.165 169.613 200.733 168.845C200.301 168.065 200.085 167.165 200.085 166.145C200.085 165.137 200.307 164.243 200.751 163.463C201.195 162.683 201.801 162.083 202.569 161.663C203.337 161.243 204.195 161.033 205.143 161.033C206.091 161.033 206.949 161.243 207.717 161.663C208.485 162.083 209.091 162.683 209.535 163.463C209.979 164.243 210.201 165.137 210.201 166.145C210.201 167.153 209.973 168.047 209.517 168.827C209.061 169.607 208.437 170.213 207.645 170.645C206.865 171.065 206.001 171.275 205.053 171.275ZM205.053 169.493C205.581 169.493 206.073 169.367 206.529 169.115C206.997 168.863 207.375 168.485 207.663 167.981C207.951 167.477 208.095 166.865 208.095 166.145C208.095 165.425 207.957 164.819 207.681 164.327C207.405 163.823 207.039 163.445 206.583 163.193C206.127 162.941 205.635 162.815 205.107 162.815C204.579 162.815 204.087 162.941 203.631 163.193C203.187 163.445 202.833 163.823 202.569 164.327C202.305 164.819 202.173 165.425 202.173 166.145C202.173 167.213 202.443 168.041 202.983 168.629C203.535 169.205 204.225 169.493 205.053 169.493ZM216.225 161.033C216.993 161.033 217.671 161.189 218.259 161.501C218.859 161.801 219.327 162.179 219.663 162.635V161.195H221.733V171.275C221.733 172.187 221.541 172.997 221.157 173.705C220.773 174.425 220.215 174.989 219.483 175.397C218.763 175.805 217.899 176.009 216.891 176.009C215.547 176.009 214.431 175.691 213.543 175.055C212.655 174.431 212.151 173.579 212.031 172.499H214.065C214.221 173.015 214.551 173.429 215.055 173.741C215.571 174.065 216.183 174.227 216.891 174.227C217.719 174.227 218.385 173.975 218.889 173.471C219.405 172.967 219.663 172.235 219.663 171.275V169.619C219.315 170.087 218.841 170.483 218.241 170.807C217.653 171.119 216.981 171.275 216.225 171.275C215.361 171.275 214.569 171.059 213.849 170.627C213.141 170.183 212.577 169.571 212.157 168.791C211.749 167.999 211.545 167.105 211.545 166.109C211.545 165.113 211.749 164.231 212.157 163.463C212.577 162.695 213.141 162.101 213.849 161.681C214.569 161.249 215.361 161.033 216.225 161.033ZM219.663 166.145C219.663 165.461 219.519 164.867 219.231 164.363C218.955 163.859 218.589 163.475 218.133 163.211C217.677 162.947 217.185 162.815 216.657 162.815C216.129 162.815 215.637 162.947 215.181 163.211C214.725 163.463 214.353 163.841 214.065 164.345C213.789 164.837 213.651 165.425 213.651 166.109C213.651 166.793 213.789 167.393 214.065 167.909C214.353 168.425 214.725 168.821 215.181 169.097C215.649 169.361 216.141 169.493 216.657 169.493C217.185 169.493 217.677 169.361 218.133 169.097C218.589 168.833 218.955 168.449 219.231 167.945C219.519 167.429 219.663 166.829 219.663 166.145ZM226.481 157.793V171.113H224.429V157.793H226.481ZM238.265 165.911C238.265 166.283 238.241 166.619 238.193 166.919H230.615C230.675 167.711 230.969 168.347 231.497 168.827C232.025 169.307 232.673 169.547 233.441 169.547C234.545 169.547 235.325 169.085 235.781 168.161H237.995C237.695 169.073 237.149 169.823 236.357 170.411C235.577 170.987 234.605 171.275 233.441 171.275C232.493 171.275 231.641 171.065 230.885 170.645C230.141 170.213 229.553 169.613 229.121 168.845C228.701 168.065 228.491 167.165 228.491 166.145C228.491 165.125 228.695 164.231 229.103 163.463C229.523 162.683 230.105 162.083 230.849 161.663C231.605 161.243 232.469 161.033 233.441 161.033C234.377 161.033 235.211 161.237 235.943 161.645C236.675 162.053 237.245 162.629 237.653 163.373C238.061 164.105 238.265 164.951 238.265 165.911ZM236.123 165.263C236.111 164.507 235.841 163.901 235.313 163.445C234.785 162.989 234.131 162.761 233.351 162.761C232.643 162.761 232.037 162.989 231.533 163.445C231.029 163.889 230.729 164.495 230.633 165.263H236.123ZM253.708 162.329C253.708 162.965 253.558 163.565 253.258 164.129C252.958 164.693 252.478 165.155 251.818 165.515C251.158 165.863 250.312 166.037 249.28 166.037H247.012V171.113H244.96V158.603H249.28C250.24 158.603 251.05 158.771 251.71 159.107C252.382 159.431 252.88 159.875 253.204 160.439C253.54 161.003 253.708 161.633 253.708 162.329ZM249.28 164.363C250.06 164.363 250.642 164.189 251.026 163.841C251.41 163.481 251.602 162.977 251.602 162.329C251.602 160.961 250.828 160.277 249.28 160.277H247.012V164.363H249.28ZM257.717 157.793V171.113H255.665V157.793H257.717ZM259.727 166.109C259.727 165.113 259.931 164.231 260.339 163.463C260.759 162.695 261.323 162.101 262.031 161.681C262.751 161.249 263.543 161.033 264.407 161.033C265.187 161.033 265.865 161.189 266.441 161.501C267.029 161.801 267.497 162.179 267.845 162.635V161.195H269.915V171.113H267.845V169.637C267.497 170.105 267.023 170.495 266.423 170.807C265.823 171.119 265.139 171.275 264.371 171.275C263.519 171.275 262.739 171.059 262.031 170.627C261.323 170.183 260.759 169.571 260.339 168.791C259.931 167.999 259.727 167.105 259.727 166.109ZM267.845 166.145C267.845 165.461 267.701 164.867 267.413 164.363C267.137 163.859 266.771 163.475 266.315 163.211C265.859 162.947 265.367 162.815 264.839 162.815C264.311 162.815 263.819 162.947 263.363 163.211C262.907 163.463 262.535 163.841 262.247 164.345C261.971 164.837 261.833 165.425 261.833 166.109C261.833 166.793 261.971 167.393 262.247 167.909C262.535 168.425 262.907 168.821 263.363 169.097C263.831 169.361 264.323 169.493 264.839 169.493C265.367 169.493 265.859 169.361 266.315 169.097C266.771 168.833 267.137 168.449 267.413 167.945C267.701 167.429 267.845 166.829 267.845 166.145ZM281.538 161.195L275.454 175.775H273.33L275.346 170.951L271.44 161.195H273.726L276.516 168.755L279.414 161.195H281.538Z" fill="white"/>
<defs>
<linearGradient id="paint0_linear_585_22592" x1="0" y1="0" x2="189.296" y2="346.622" gradientUnits="userSpaceOnUse">
<stop stop-color="#F761A1"/>
<stop offset="1" stop-color="#8C1BAB"/>
</linearGradient>
</defs>
</svg>
