<svg width="82" height="80" viewBox="0 0 82 80" fill="none" xmlns="http://www.w3.org/2000/svg">
<g filter="url(#filter0_d_585_22610)">
<rect y="6" width="51" height="51" rx="25.5" fill="#111827"/>
<path d="M18.6336 36.9572C20.592 35.264 22.1322 33.8768 23.2542 32.7956C24.3966 31.694 25.3452 30.5516 26.1 29.3684C26.8548 28.1852 27.2322 27.002 27.2322 25.8188C27.2322 24.5948 26.9364 23.636 26.3448 22.9424C25.7736 22.2488 24.8658 21.902 23.6214 21.902C22.4178 21.902 21.4794 22.2896 20.8062 23.0648C20.1534 23.8196 19.8066 24.8396 19.7658 26.1248H16.3998C16.461 23.7992 17.1546 22.0244 18.4806 20.8004C19.827 19.556 21.5304 18.9338 23.5908 18.9338C25.8144 18.9338 27.5484 19.5458 28.7928 20.7698C30.0576 21.9938 30.69 23.6258 30.69 25.6658C30.69 27.1346 30.3126 28.5524 29.5578 29.9192C28.8234 31.2656 27.936 32.4794 26.8956 33.5606C25.8756 34.6214 24.57 35.8556 22.9788 37.2632L21.6018 38.4872H31.302V41.3942H16.4304V38.8544L18.6336 36.9572Z" fill="white"/>
</g>
<defs>
<filter id="filter0_d_585_22610" x="0" y="0.900001" width="81.6" height="78.2" filterUnits="userSpaceOnUse" color-interpolation-filters="sRGB">
<feFlood flood-opacity="0" result="BackgroundImageFix"/>
<feColorMatrix in="SourceAlpha" type="matrix" values="0 0 0 0 0 0 0 0 0 0 0 0 0 0 0 0 0 0 127 0" result="hardAlpha"/>
<feOffset dx="17" dy="8.5"/>
<feGaussianBlur stdDeviation="6.8"/>
<feComposite in2="hardAlpha" operator="out"/>
<feColorMatrix type="matrix" values="0 0 0 0 0 0 0 0 0 0 0 0 0 0 0 0 0 0 0.05 0"/>
<feBlend mode="normal" in2="BackgroundImageFix" result="effect1_dropShadow_585_22610"/>
<feBlend mode="normal" in="SourceGraphic" in2="effect1_dropShadow_585_22610" result="shape"/>
</filter>
</defs>
</svg>
