<svg width="82" height="80" viewBox="0 0 82 80" fill="none" xmlns="http://www.w3.org/2000/svg">
<g filter="url(#filter0_d_585_22623)">
<rect y="6" width="51" height="51" rx="25.5" fill="#111827"/>
<path d="M16.8906 24.9008C17.013 23.0036 17.7372 21.5246 19.0632 20.4638C20.4096 19.403 22.1232 18.8726 24.204 18.8726C25.632 18.8726 26.8662 19.1276 27.9066 19.6376C28.947 20.1476 29.7324 20.8412 30.2628 21.7184C30.7932 22.5956 31.0584 23.585 31.0584 24.6866C31.0584 25.9514 30.7218 27.0326 30.0486 27.9302C29.3754 28.8278 28.5696 29.4296 27.6312 29.7356V29.858C28.8348 30.2252 29.7732 30.8984 30.4464 31.8776C31.1196 32.8364 31.4562 34.0706 31.4562 35.5802C31.4562 36.7838 31.1808 37.8548 30.63 38.7932C30.0792 39.7316 29.2632 40.4762 28.182 41.027C27.1008 41.5574 25.8054 41.8226 24.2958 41.8226C22.0926 41.8226 20.277 41.2616 18.849 40.1396C17.4414 38.9972 16.6866 37.3652 16.5846 35.2436H19.9506C20.0322 36.3248 20.4504 37.2122 21.2052 37.9058C21.96 38.579 22.98 38.9156 24.2652 38.9156C25.5096 38.9156 26.4684 38.579 27.1416 37.9058C27.8148 37.2122 28.1514 36.3248 28.1514 35.2436C28.1514 33.8156 27.6924 32.8058 26.7744 32.2142C25.8768 31.6022 24.4896 31.2962 22.6128 31.2962H21.8172V28.4198H22.6434C24.2958 28.3994 25.5504 28.124 26.4072 27.5936C27.2844 27.0632 27.723 26.2268 27.723 25.0844C27.723 24.1052 27.4068 23.33 26.7744 22.7588C26.142 22.1672 25.2444 21.8714 24.0816 21.8714C22.9392 21.8714 22.0518 22.1672 21.4194 22.7588C20.787 23.33 20.4096 24.044 20.2872 24.9008H16.8906Z" fill="white"/>
</g>
<defs>
<filter id="filter0_d_585_22623" x="0" y="0.900001" width="81.6" height="78.2" filterUnits="userSpaceOnUse" color-interpolation-filters="sRGB">
<feFlood flood-opacity="0" result="BackgroundImageFix"/>
<feColorMatrix in="SourceAlpha" type="matrix" values="0 0 0 0 0 0 0 0 0 0 0 0 0 0 0 0 0 0 127 0" result="hardAlpha"/>
<feOffset dx="17" dy="8.5"/>
<feGaussianBlur stdDeviation="6.8"/>
<feComposite in2="hardAlpha" operator="out"/>
<feColorMatrix type="matrix" values="0 0 0 0 0 0 0 0 0 0 0 0 0 0 0 0 0 0 0.05 0"/>
<feBlend mode="normal" in2="BackgroundImageFix" result="effect1_dropShadow_585_22623"/>
<feBlend mode="normal" in="SourceGraphic" in2="effect1_dropShadow_585_22623" result="shape"/>
</filter>
</defs>
</svg>
