<svg width="17" height="21" viewBox="0 0 17 21" fill="none" xmlns="http://www.w3.org/2000/svg">
<path d="M16.2417 5.50239C14.8721 2.42007 12.4741 0.878906 9.04961 0.878906C3.9124 0.878906 0.830078 3.44751 0.830078 10.1259C0.830078 16.8042 4.42612 19.3729 9.04961 19.3729C13.6731 19.3729 16.2417 16.2905 16.2417 14.2356C16.2417 12.1808 15.2143 9.09844 9.04961 9.09844C6.48101 9.09844 5.96729 10.3827 5.96729 11.667C5.96729 13.2082 6.99473 14.2356 8.53589 14.2356C11.1045 14.2356 12.1319 12.6945 12.1319 9.09844C12.1319 5.50239 10.0771 4.98867 9.04961 4.98867C8.02217 4.98867 7.16631 5.33081 6.48101 6.01611" stroke="#111827" stroke-width="1.49773" stroke-linecap="round" stroke-linejoin="round"/>
</svg>
